<?xml version="1.0" encoding="utf-8"?>
<Project name="Pie Pivot-o Video compilation" themeId="0" version="65540" templateID="SimpleProjectTemplate">
  <MediaItems>
    <MediaItem id="1" filePath="C:\Users\SeanPM\Downloads\Pie Pivot-o Archive\01\(BAD) YTP Spingebill'sEarrape Adventure.mp4" arWidth="1280" arHeight="720" duration="260.99996650000003" songTitle="" songArtist="" songAlbum="" songCopyrightUrl="" songArtistUrl="" songAudioFileUrl="" stabilizationMode="0" mediaItemType="1" />
    <MediaItem id="2" filePath="C:\Users\SeanPM\Downloads\Pie Pivot-o Archive\01\Thumbnail1.png" arWidth="246" arHeight="138" duration="0" songTitle="" songArtist="" songAlbum="" songCopyrightUrl="" songArtistUrl="" songAudioFileUrl="" stabilizationMode="0" mediaItemType="2" />
    <MediaItem id="3" filePath="C:\Users\SeanPM\Downloads\Pie Pivot-o Archive\01\Video1Description.png" arWidth="1280" arHeight="720" duration="0" songTitle="" songArtist="" songAlbum="" songCopyrightUrl="" songArtistUrl="" songAudioFileUrl="" stabilizationMode="0" mediaItemType="2" />
    <MediaItem id="4" filePath="C:\Users\SeanPM\Downloads\Pie Pivot-o Archive\01\Video1Title.png" arWidth="1280" arHeight="720" duration="0" songTitle="" songArtist="" songAlbum="" songCopyrightUrl="" songArtistUrl="" songAudioFileUrl="" stabilizationMode="0" mediaItemType="2" />
    <MediaItem id="5" filePath="C:\Users\SeanPM\Downloads\Pie Pivot-o Archive\Title.png" arWidth="1280" arHeight="720" duration="0" songTitle="" songArtist="" songAlbum="" songCopyrightUrl="" songArtistUrl="" songAudioFileUrl="" stabilizationMode="0" mediaItemType="2" />
    <MediaItem id="6" filePath="C:\Users\SeanPM\Downloads\Pie Pivot-o Archive\PIE_PIVOT-O_Channel_Icon.png" arWidth="176" arHeight="176" duration="0" songTitle="" songArtist="" songAlbum="" songCopyrightUrl="" songArtistUrl="" songAudioFileUrl="" stabilizationMode="0" mediaItemType="2" />
    <MediaItem id="7" filePath="C:\Users\SeanPM\Downloads\Pie Pivot-o Archive\02\Thumbnail2.png" arWidth="246" arHeight="138" duration="0" songTitle="" songArtist="" songAlbum="" songCopyrightUrl="" songArtistUrl="" songAudioFileUrl="" stabilizationMode="0" mediaItemType="2" />
    <MediaItem id="8" filePath="C:\Users\SeanPM\Downloads\Pie Pivot-o Archive\02\Video2Description.png" arWidth="1280" arHeight="720" duration="0" songTitle="" songArtist="" songAlbum="" songCopyrightUrl="" songArtistUrl="" songAudioFileUrl="" stabilizationMode="0" mediaItemType="2" />
    <MediaItem id="9" filePath="C:\Users\SeanPM\Downloads\Pie Pivot-o Archive\02\Video2Title.png" arWidth="1280" arHeight="720" duration="0" songTitle="" songArtist="" songAlbum="" songCopyrightUrl="" songArtistUrl="" songAudioFileUrl="" stabilizationMode="0" mediaItemType="2" />
    <MediaItem id="10" filePath="C:\Users\SeanPM\Downloads\Pie Pivot-o Archive\02\Youtube Poop- Spongebob Drinks Battery Acid.mp4" arWidth="1280" arHeight="720" duration="156.96663319999999" songTitle="" songArtist="" songAlbum="" songCopyrightUrl="" songArtistUrl="" songAudioFileUrl="" stabilizationMode="0" mediaItemType="1" />
    <MediaItem id="11" filePath="C:\Users\SeanPM\Downloads\Pie Pivot-o Archive\03\Thumbnail3.png" arWidth="246" arHeight="138" duration="0" songTitle="" songArtist="" songAlbum="" songCopyrightUrl="" songArtistUrl="" songAudioFileUrl="" stabilizationMode="0" mediaItemType="2" />
    <MediaItem id="12" filePath="C:\Users\SeanPM\Downloads\Pie Pivot-o Archive\03\Video3Description.png" arWidth="1280" arHeight="720" duration="0" songTitle="" songArtist="" songAlbum="" songCopyrightUrl="" songArtistUrl="" songAudioFileUrl="" stabilizationMode="0" mediaItemType="2" />
    <MediaItem id="13" filePath="C:\Users\SeanPM\Downloads\Pie Pivot-o Archive\03\Video3Title.png" arWidth="1280" arHeight="720" duration="0" songTitle="" songArtist="" songAlbum="" songCopyrightUrl="" songArtistUrl="" songAudioFileUrl="" stabilizationMode="0" mediaItemType="2" />
    <MediaItem id="14" filePath="C:\Users\SeanPM\Downloads\Pie Pivot-o Archive\03\(BAD)Youtube Poop - Don't Hug Me, I'm Socially Impaired.mp4" arWidth="1280" arHeight="720" duration="225.45855850000001" songTitle="" songArtist="" songAlbum="" songCopyrightUrl="" songArtistUrl="" songAudioFileUrl="" stabilizationMode="0" mediaItemType="1" />
    <MediaItem id="15" filePath="C:\Users\SeanPM\Downloads\Pie Pivot-o Archive\04\Thumbnail4.png" arWidth="246" arHeight="138" duration="0" songTitle="" songArtist="" songAlbum="" songCopyrightUrl="" songArtistUrl="" songAudioFileUrl="" stabilizationMode="0" mediaItemType="2" />
    <MediaItem id="16" filePath="C:\Users\SeanPM\Downloads\Pie Pivot-o Archive\04\Video4Description.png" arWidth="1280" arHeight="720" duration="0" songTitle="" songArtist="" songAlbum="" songCopyrightUrl="" songArtistUrl="" songAudioFileUrl="" stabilizationMode="0" mediaItemType="2" />
    <MediaItem id="17" filePath="C:\Users\SeanPM\Downloads\Pie Pivot-o Archive\04\Video4Title.png" arWidth="1280" arHeight="720" duration="0" songTitle="" songArtist="" songAlbum="" songCopyrightUrl="" songArtistUrl="" songAudioFileUrl="" stabilizationMode="0" mediaItemType="2" />
    <MediaItem id="18" filePath="C:\Users\SeanPM\Downloads\Pie Pivot-o Archive\04\Youtube Poop - Spingebill Descends To The Afterlife.mp4" arWidth="1280" arHeight="720" duration="211.8449449" songTitle="" songArtist="" songAlbum="" songCopyrightUrl="" songArtistUrl="" songAudioFileUrl="" stabilizationMode="0" mediaItemType="1" />
    <MediaItem id="19" filePath="C:\Users\SeanPM\Downloads\Pie Pivot-o Archive\05\Video5Title.png" arWidth="1280" arHeight="720" duration="0" songTitle="" songArtist="" songAlbum="" songCopyrightUrl="" songArtistUrl="" songAudioFileUrl="" stabilizationMode="0" mediaItemType="2" />
    <MediaItem id="20" filePath="C:\Users\SeanPM\Downloads\Pie Pivot-o Archive\05\Thumbnail5.png" arWidth="246" arHeight="138" duration="0" songTitle="" songArtist="" songAlbum="" songCopyrightUrl="" songArtistUrl="" songAudioFileUrl="" stabilizationMode="0" mediaItemType="2" />
    <MediaItem id="21" filePath="C:\Users\SeanPM\Downloads\Pie Pivot-o Archive\05\Video5Description.png" arWidth="1280" arHeight="720" duration="0" songTitle="" songArtist="" songAlbum="" songCopyrightUrl="" songArtistUrl="" songAudioFileUrl="" stabilizationMode="0" mediaItemType="2" />
    <MediaItem id="22" filePath="C:\Users\SeanPM\Downloads\Pie Pivot-o Archive\05\Youtube Poop - Squidward Disrupts the Space-Time Continuum.mp4" arWidth="1280" arHeight="720" duration="389.52245570000002" songTitle="" songArtist="" songAlbum="" songCopyrightUrl="" songArtistUrl="" songAudioFileUrl="" stabilizationMode="0" mediaItemType="1" />
    <MediaItem id="23" filePath="C:\Users\SeanPM\Downloads\Pie Pivot-o Archive\06\Thumbnail6.png" arWidth="246" arHeight="138" duration="0" songTitle="" songArtist="" songAlbum="" songCopyrightUrl="" songArtistUrl="" songAudioFileUrl="" stabilizationMode="0" mediaItemType="2" />
    <MediaItem id="24" filePath="C:\Users\SeanPM\Downloads\Pie Pivot-o Archive\06\Video6Description.png" arWidth="1280" arHeight="720" duration="0" songTitle="" songArtist="" songAlbum="" songCopyrightUrl="" songArtistUrl="" songAudioFileUrl="" stabilizationMode="0" mediaItemType="2" />
    <MediaItem id="25" filePath="C:\Users\SeanPM\Downloads\Pie Pivot-o Archive\06\Video6Title.png" arWidth="1280" arHeight="720" duration="0" songTitle="" songArtist="" songAlbum="" songCopyrightUrl="" songArtistUrl="" songAudioFileUrl="" stabilizationMode="0" mediaItemType="2" />
    <MediaItem id="26" filePath="C:\Users\SeanPM\Downloads\Pie Pivot-o Archive\06\Youtube Poop - Elmo is Constipated.mp4" arWidth="1280" arHeight="720" duration="110.27681010000001" songTitle="" songArtist="" songAlbum="" songCopyrightUrl="" songArtistUrl="" songAudioFileUrl="" stabilizationMode="0" mediaItemType="1" />
    <MediaItem id="27" filePath="C:\Users\SeanPM\Downloads\Pie Pivot-o Archive\07\(Meh) Youtube Poop - Spongebob Re-enacts 420.mp4" arWidth="1280" arHeight="720" duration="260.25999330000002" songTitle="" songArtist="" songAlbum="" songCopyrightUrl="" songArtistUrl="" songAudioFileUrl="" stabilizationMode="0" mediaItemType="1" />
    <MediaItem id="28" filePath="C:\Users\SeanPM\Downloads\Pie Pivot-o Archive\07\Thumbnail7.png" arWidth="246" arHeight="138" duration="0" songTitle="" songArtist="" songAlbum="" songCopyrightUrl="" songArtistUrl="" songAudioFileUrl="" stabilizationMode="0" mediaItemType="2" />
    <MediaItem id="29" filePath="C:\Users\SeanPM\Downloads\Pie Pivot-o Archive\07\Video7Description.png" arWidth="1280" arHeight="720" duration="0" songTitle="" songArtist="" songAlbum="" songCopyrightUrl="" songArtistUrl="" songAudioFileUrl="" stabilizationMode="0" mediaItemType="2" />
    <MediaItem id="30" filePath="C:\Users\SeanPM\Downloads\Pie Pivot-o Archive\07\Video7Title.png" arWidth="768" arHeight="432" duration="0" songTitle="" songArtist="" songAlbum="" songCopyrightUrl="" songArtistUrl="" songAudioFileUrl="" stabilizationMode="0" mediaItemType="2" />
    <MediaItem id="31" filePath="C:\Users\SeanPM\Downloads\Pie Pivot-o Archive\08\Thumbnail8.png" arWidth="246" arHeight="138" duration="0" songTitle="" songArtist="" songAlbum="" songCopyrightUrl="" songArtistUrl="" songAudioFileUrl="" stabilizationMode="0" mediaItemType="2" />
    <MediaItem id="32" filePath="C:\Users\SeanPM\Downloads\Pie Pivot-o Archive\08\Video8Description.png" arWidth="1280" arHeight="720" duration="0" songTitle="" songArtist="" songAlbum="" songCopyrightUrl="" songArtistUrl="" songAudioFileUrl="" stabilizationMode="0" mediaItemType="2" />
    <MediaItem id="33" filePath="C:\Users\SeanPM\Downloads\Pie Pivot-o Archive\08\Video8Title.png" arWidth="1280" arHeight="720" duration="0" songTitle="" songArtist="" songAlbum="" songCopyrightUrl="" songArtistUrl="" songAudioFileUrl="" stabilizationMode="0" mediaItemType="2" />
    <MediaItem id="34" filePath="C:\Users\SeanPM\Downloads\Pie Pivot-o Archive\08\Youtube Poop - Michael Rosen Bombs McDonald's.mp4" arWidth="854" arHeight="480" duration="173.36099999999999" songTitle="" songArtist="" songAlbum="" songCopyrightUrl="" songArtistUrl="" songAudioFileUrl="" stabilizationMode="0" mediaItemType="1" />
    <MediaItem id="35" filePath="C:\Users\SeanPM\Downloads\Pie Pivot-o Archive\09\Thumbnail9.png" arWidth="246" arHeight="138" duration="0" songTitle="" songArtist="" songAlbum="" songCopyrightUrl="" songArtistUrl="" songAudioFileUrl="" stabilizationMode="0" mediaItemType="2" />
    <MediaItem id="36" filePath="C:\Users\SeanPM\Downloads\Pie Pivot-o Archive\09\Video9Description.png" arWidth="1280" arHeight="720" duration="0" songTitle="" songArtist="" songAlbum="" songCopyrightUrl="" songArtistUrl="" songAudioFileUrl="" stabilizationMode="0" mediaItemType="2" />
    <MediaItem id="37" filePath="C:\Users\SeanPM\Downloads\Pie Pivot-o Archive\09\Video9Title.png" arWidth="768" arHeight="432" duration="0" songTitle="" songArtist="" songAlbum="" songCopyrightUrl="" songArtistUrl="" songAudioFileUrl="" stabilizationMode="0" mediaItemType="2" />
    <MediaItem id="38" filePath="C:\Users\SeanPM\Downloads\Pie Pivot-o Archive\09\Youtube Poop - Mr. Krack's Steamed Clam Escapade.mp4" arWidth="1280" arHeight="720" duration="289.85622280000001" songTitle="" songArtist="" songAlbum="" songCopyrightUrl="" songArtistUrl="" songAudioFileUrl="" stabilizationMode="0" mediaItemType="1" />
    <MediaItem id="39" filePath="C:\Users\SeanPM\Downloads\Pie Pivot-o Archive\10\Thumbnail10.png" arWidth="246" arHeight="138" duration="0" songTitle="" songArtist="" songAlbum="" songCopyrightUrl="" songArtistUrl="" songAudioFileUrl="" stabilizationMode="0" mediaItemType="2" />
    <MediaItem id="40" filePath="C:\Users\SeanPM\Downloads\Pie Pivot-o Archive\10\Video10Description.png" arWidth="1280" arHeight="720" duration="0" songTitle="" songArtist="" songAlbum="" songCopyrightUrl="" songArtistUrl="" songAudioFileUrl="" stabilizationMode="0" mediaItemType="2" />
    <MediaItem id="41" filePath="C:\Users\SeanPM\Downloads\Pie Pivot-o Archive\10\Video10Title.png" arWidth="96" arHeight="54" duration="0" songTitle="" songArtist="" songAlbum="" songCopyrightUrl="" songArtistUrl="" songAudioFileUrl="" stabilizationMode="0" mediaItemType="2" />
    <MediaItem id="42" filePath="C:\Users\SeanPM\Downloads\Pie Pivot-o Archive\10\Youtube Poop - Squidward and the Canned Bread Epidemic.mp4" arWidth="1280" arHeight="720" duration="238.17123789999999" songTitle="" songArtist="" songAlbum="" songCopyrightUrl="" songArtistUrl="" songAudioFileUrl="" stabilizationMode="0" mediaItemType="1" />
    <MediaItem id="43" filePath="C:\Users\SeanPM\Downloads\Pie Pivot-o Archive\11\Thumbnail11.png" arWidth="246" arHeight="138" duration="0" songTitle="" songArtist="" songAlbum="" songCopyrightUrl="" songArtistUrl="" songAudioFileUrl="" stabilizationMode="0" mediaItemType="2" />
    <MediaItem id="44" filePath="C:\Users\SeanPM\Downloads\Pie Pivot-o Archive\11\Video11Description.png" arWidth="1280" arHeight="720" duration="0" songTitle="" songArtist="" songAlbum="" songCopyrightUrl="" songArtistUrl="" songAudioFileUrl="" stabilizationMode="0" mediaItemType="2" />
    <MediaItem id="45" filePath="C:\Users\SeanPM\Downloads\Pie Pivot-o Archive\11\Video11Title.png" arWidth="96" arHeight="54" duration="0" songTitle="" songArtist="" songAlbum="" songCopyrightUrl="" songArtistUrl="" songAudioFileUrl="" stabilizationMode="0" mediaItemType="2" />
    <MediaItem id="46" filePath="C:\Users\SeanPM\Downloads\Pie Pivot-o Archive\11\YTP - Charmx Swallows A Giant Meatball.mp4" arWidth="1280" arHeight="720" duration="156.55634620000001" songTitle="" songArtist="" songAlbum="" songCopyrightUrl="" songArtistUrl="" songAudioFileUrl="" stabilizationMode="0" mediaItemType="1" />
    <MediaItem id="47" filePath="C:\Users\SeanPM\Downloads\Pie Pivot-o Archive\12\Thumbnail12.png" arWidth="246" arHeight="138" duration="0" songTitle="" songArtist="" songAlbum="" songCopyrightUrl="" songArtistUrl="" songAudioFileUrl="" stabilizationMode="0" mediaItemType="2" />
    <MediaItem id="48" filePath="C:\Users\SeanPM\Downloads\Pie Pivot-o Archive\12\VIDEO12Description.png" arWidth="1280" arHeight="720" duration="0" songTitle="" songArtist="" songAlbum="" songCopyrightUrl="" songArtistUrl="" songAudioFileUrl="" stabilizationMode="0" mediaItemType="2" />
    <MediaItem id="49" filePath="C:\Users\SeanPM\Downloads\Pie Pivot-o Archive\12\Video12Title.png" arWidth="768" arHeight="432" duration="0" songTitle="" songArtist="" songAlbum="" songCopyrightUrl="" songArtistUrl="" songAudioFileUrl="" stabilizationMode="0" mediaItemType="2" />
    <MediaItem id="50" filePath="C:\Users\SeanPM\Downloads\Pie Pivot-o Archive\12\YTP - Spingebill Assembles A Team Of Idiots.mp4" arWidth="1280" arHeight="720" duration="401.7012679" songTitle="" songArtist="" songAlbum="" songCopyrightUrl="" songArtistUrl="" songAudioFileUrl="" stabilizationMode="0" mediaItemType="1" />
    <MediaItem id="51" filePath="C:\Users\SeanPM\Downloads\Pie Pivot-o Archive\13\The Real YouTube Rewind 2017.mp4" arWidth="1280" arHeight="720" duration="240.0391999" songTitle="" songArtist="" songAlbum="" songCopyrightUrl="" songArtistUrl="" songAudioFileUrl="" stabilizationMode="0" mediaItemType="1" />
    <MediaItem id="52" filePath="C:\Users\SeanPM\Downloads\Pie Pivot-o Archive\13\Thumbnail13.png" arWidth="246" arHeight="138" duration="0" songTitle="" songArtist="" songAlbum="" songCopyrightUrl="" songArtistUrl="" songAudioFileUrl="" stabilizationMode="0" mediaItemType="2" />
    <MediaItem id="53" filePath="C:\Users\SeanPM\Downloads\Pie Pivot-o Archive\13\Video13Description.png" arWidth="1280" arHeight="720" duration="0" songTitle="" songArtist="" songAlbum="" songCopyrightUrl="" songArtistUrl="" songAudioFileUrl="" stabilizationMode="0" mediaItemType="2" />
    <MediaItem id="54" filePath="C:\Users\SeanPM\Downloads\Pie Pivot-o Archive\13\Video13Title.png" arWidth="1280" arHeight="720" duration="0" songTitle="" songArtist="" songAlbum="" songCopyrightUrl="" songArtistUrl="" songAudioFileUrl="" stabilizationMode="0" mediaItemType="2" />
    <MediaItem id="55" filePath="C:\Users\SeanPM\Downloads\Pie Pivot-o Archive\14\Thumbnail14.png" arWidth="246" arHeight="138" duration="0" songTitle="" songArtist="" songAlbum="" songCopyrightUrl="" songArtistUrl="" songAudioFileUrl="" stabilizationMode="0" mediaItemType="2" />
    <MediaItem id="56" filePath="C:\Users\SeanPM\Downloads\Pie Pivot-o Archive\14\Video14Description.png" arWidth="1280" arHeight="720" duration="0" songTitle="" songArtist="" songAlbum="" songCopyrightUrl="" songArtistUrl="" songAudioFileUrl="" stabilizationMode="0" mediaItemType="2" />
    <MediaItem id="57" filePath="C:\Users\SeanPM\Downloads\Pie Pivot-o Archive\14\Video14Title.png" arWidth="768" arHeight="432" duration="0" songTitle="" songArtist="" songAlbum="" songCopyrightUrl="" songArtistUrl="" songAudioFileUrl="" stabilizationMode="0" mediaItemType="2" />
    <MediaItem id="58" filePath="C:\Users\SeanPM\Downloads\Pie Pivot-o Archive\14\YTP - Homalone.mp4" arWidth="1280" arHeight="720" duration="233.1911077" songTitle="" songArtist="" songAlbum="" songCopyrightUrl="" songArtistUrl="" songAudioFileUrl="" stabilizationMode="0" mediaItemType="1" />
    <MediaItem id="59" filePath="C:\Users\SeanPM\Downloads\Pie Pivot-o Archive\15\GET OUT OF CAR.mp4" arWidth="1280" arHeight="720" duration="43.109709700000003" songTitle="" songArtist="" songAlbum="" songCopyrightUrl="" songArtistUrl="" songAudioFileUrl="" stabilizationMode="0" mediaItemType="1" />
    <MediaItem id="60" filePath="C:\Users\SeanPM\Downloads\Pie Pivot-o Archive\15\Thumbnail15.png" arWidth="246" arHeight="138" duration="0" songTitle="" songArtist="" songAlbum="" songCopyrightUrl="" songArtistUrl="" songAudioFileUrl="" stabilizationMode="0" mediaItemType="2" />
    <MediaItem id="61" filePath="C:\Users\SeanPM\Downloads\Pie Pivot-o Archive\15\Video15Description.png" arWidth="1280" arHeight="720" duration="0" songTitle="" songArtist="" songAlbum="" songCopyrightUrl="" songArtistUrl="" songAudioFileUrl="" stabilizationMode="0" mediaItemType="2" />
    <MediaItem id="62" filePath="C:\Users\SeanPM\Downloads\Pie Pivot-o Archive\15\Video15Title.png" arWidth="1280" arHeight="720" duration="0" songTitle="" songArtist="" songAlbum="" songCopyrightUrl="" songArtistUrl="" songAudioFileUrl="" stabilizationMode="0" mediaItemType="2" />
    <MediaItem id="63" filePath="C:\Users\SeanPM\Downloads\Pie Pivot-o Archive\16\The Magic School Bus YTP Collab.mp4" arWidth="1280" arHeight="720" duration="1620.9192859" songTitle="" songArtist="" songAlbum="" songCopyrightUrl="" songArtistUrl="" songAudioFileUrl="" stabilizationMode="0" mediaItemType="1" />
    <MediaItem id="64" filePath="C:\Users\SeanPM\Downloads\Pie Pivot-o Archive\16\Thumbnail16.png" arWidth="246" arHeight="138" duration="0" songTitle="" songArtist="" songAlbum="" songCopyrightUrl="" songArtistUrl="" songAudioFileUrl="" stabilizationMode="0" mediaItemType="2" />
    <MediaItem id="65" filePath="C:\Users\SeanPM\Downloads\Pie Pivot-o Archive\16\Video16Description.png" arWidth="1280" arHeight="720" duration="0" songTitle="" songArtist="" songAlbum="" songCopyrightUrl="" songArtistUrl="" songAudioFileUrl="" stabilizationMode="0" mediaItemType="2" />
    <MediaItem id="66" filePath="C:\Users\SeanPM\Downloads\Pie Pivot-o Archive\16\Video16Title.png" arWidth="1280" arHeight="720" duration="0" songTitle="" songArtist="" songAlbum="" songCopyrightUrl="" songArtistUrl="" songAudioFileUrl="" stabilizationMode="0" mediaItemType="2" />
    <MediaItem id="67" filePath="C:\Users\SeanPM\Downloads\Pie Pivot-o Archive\17\Thumbnail17.png" arWidth="246" arHeight="138" duration="0" songTitle="" songArtist="" songAlbum="" songCopyrightUrl="" songArtistUrl="" songAudioFileUrl="" stabilizationMode="0" mediaItemType="2" />
    <MediaItem id="68" filePath="C:\Users\SeanPM\Downloads\Pie Pivot-o Archive\17\Video17Description.png" arWidth="1280" arHeight="720" duration="0" songTitle="" songArtist="" songAlbum="" songCopyrightUrl="" songArtistUrl="" songAudioFileUrl="" stabilizationMode="0" mediaItemType="2" />
    <MediaItem id="69" filePath="C:\Users\SeanPM\Downloads\Pie Pivot-o Archive\17\Video17Title.png" arWidth="768" arHeight="432" duration="0" songTitle="" songArtist="" songAlbum="" songCopyrightUrl="" songArtistUrl="" songAudioFileUrl="" stabilizationMode="0" mediaItemType="2" />
    <MediaItem id="70" filePath="C:\Users\SeanPM\Downloads\Pie Pivot-o Archive\17\YTP - Squidward Eats Canned Hams At The Pizza Bowl.mp4" arWidth="1280" arHeight="720" duration="201.7682015" songTitle="" songArtist="" songAlbum="" songCopyrightUrl="" songArtistUrl="" songAudioFileUrl="" stabilizationMode="0" mediaItemType="1" />
    <MediaItem id="71" filePath="C:\Users\SeanPM\Downloads\Pie Pivot-o Archive\18\Pewdiepie breaks reality as we know it.mp4" arWidth="1280" arHeight="720" duration="13.6469469" songTitle="" songArtist="" songAlbum="" songCopyrightUrl="" songArtistUrl="" songAudioFileUrl="" stabilizationMode="0" mediaItemType="1" />
    <MediaItem id="72" filePath="C:\Users\SeanPM\Downloads\Pie Pivot-o Archive\18\Thumbnail18.png" arWidth="246" arHeight="138" duration="0" songTitle="" songArtist="" songAlbum="" songCopyrightUrl="" songArtistUrl="" songAudioFileUrl="" stabilizationMode="0" mediaItemType="2" />
    <MediaItem id="73" filePath="C:\Users\SeanPM\Downloads\Pie Pivot-o Archive\18\Video18Description.png" arWidth="1280" arHeight="720" duration="0" songTitle="" songArtist="" songAlbum="" songCopyrightUrl="" songArtistUrl="" songAudioFileUrl="" stabilizationMode="0" mediaItemType="2" />
    <MediaItem id="74" filePath="C:\Users\SeanPM\Downloads\Pie Pivot-o Archive\18\Video18Title.png" arWidth="96" arHeight="54" duration="0" songTitle="" songArtist="" songAlbum="" songCopyrightUrl="" songArtistUrl="" songAudioFileUrl="" stabilizationMode="0" mediaItemType="2" />
    <MediaItem id="75" filePath="C:\Users\SeanPM\Downloads\Pie Pivot-o Archive\19\Thumbnail19.png" arWidth="246" arHeight="138" duration="0" songTitle="" songArtist="" songAlbum="" songCopyrightUrl="" songArtistUrl="" songAudioFileUrl="" stabilizationMode="0" mediaItemType="2" />
    <MediaItem id="76" filePath="C:\Users\SeanPM\Downloads\Pie Pivot-o Archive\19\Video19Description.png" arWidth="768" arHeight="432" duration="0" songTitle="" songArtist="" songAlbum="" songCopyrightUrl="" songArtistUrl="" songAudioFileUrl="" stabilizationMode="0" mediaItemType="2" />
    <MediaItem id="77" filePath="C:\Users\SeanPM\Downloads\Pie Pivot-o Archive\19\Video19Title.png" arWidth="768" arHeight="432" duration="0" songTitle="" songArtist="" songAlbum="" songCopyrightUrl="" songArtistUrl="" songAudioFileUrl="" stabilizationMode="0" mediaItemType="2" />
    <MediaItem id="78" filePath="C:\Users\SeanPM\Downloads\Pie Pivot-o Archive\19\youtube poop raywilliamjohnson poops!.mp4" arWidth="320" arHeight="240" duration="153.18199989999999" songTitle="" songArtist="" songAlbum="" songCopyrightUrl="" songArtistUrl="" songAudioFileUrl="" stabilizationMode="0" mediaItemType="1" />
    <MediaItem id="79" filePath="C:\Users\SeanPM\Downloads\Pie Pivot-o Archive\20\Thumbnail20.png" arWidth="246" arHeight="138" duration="0" songTitle="" songArtist="" songAlbum="" songCopyrightUrl="" songArtistUrl="" songAudioFileUrl="" stabilizationMode="0" mediaItemType="2" />
    <MediaItem id="80" filePath="C:\Users\SeanPM\Downloads\Pie Pivot-o Archive\20\Video20Description.png" arWidth="1280" arHeight="720" duration="0" songTitle="" songArtist="" songAlbum="" songCopyrightUrl="" songArtistUrl="" songAudioFileUrl="" stabilizationMode="0" mediaItemType="2" />
    <MediaItem id="81" filePath="C:\Users\SeanPM\Downloads\Pie Pivot-o Archive\20\Video20Title.png" arWidth="768" arHeight="432" duration="0" songTitle="" songArtist="" songAlbum="" songCopyrightUrl="" songArtistUrl="" songAudioFileUrl="" stabilizationMode="0" mediaItemType="2" />
    <MediaItem id="82" filePath="C:\Users\SeanPM\Downloads\Pie Pivot-o Archive\20\YTP - Spingebill's Bizarre Revolution.mp4" arWidth="1280" arHeight="720" duration="277.9443109" songTitle="" songArtist="" songAlbum="" songCopyrightUrl="" songArtistUrl="" songAudioFileUrl="" stabilizationMode="0" mediaItemType="1" />
    <MediaItem id="83" filePath="C:\Users\SeanPM\Downloads\Pie Pivot-o Archive\21\AMERICA.mp4" arWidth="1280" arHeight="720" duration="10.777410700000001" songTitle="" songArtist="" songAlbum="" songCopyrightUrl="" songArtistUrl="" songAudioFileUrl="" stabilizationMode="0" mediaItemType="1" />
    <MediaItem id="84" filePath="C:\Users\SeanPM\Downloads\Pie Pivot-o Archive\21\Thumbnail21.png" arWidth="246" arHeight="138" duration="0" songTitle="" songArtist="" songAlbum="" songCopyrightUrl="" songArtistUrl="" songAudioFileUrl="" stabilizationMode="0" mediaItemType="2" />
    <MediaItem id="85" filePath="C:\Users\SeanPM\Downloads\Pie Pivot-o Archive\21\Video21Description.png" arWidth="1280" arHeight="720" duration="0" songTitle="" songArtist="" songAlbum="" songCopyrightUrl="" songArtistUrl="" songAudioFileUrl="" stabilizationMode="0" mediaItemType="2" />
    <MediaItem id="86" filePath="C:\Users\SeanPM\Downloads\Pie Pivot-o Archive\21\Video21Title.png" arWidth="768" arHeight="432" duration="0" songTitle="" songArtist="" songAlbum="" songCopyrightUrl="" songArtistUrl="" songAudioFileUrl="" stabilizationMode="0" mediaItemType="2" />
    <MediaItem id="87" filePath="C:\Users\SeanPM\Downloads\Pie Pivot-o Archive\22\Thumbnail22.png" arWidth="246" arHeight="138" duration="0" songTitle="" songArtist="" songAlbum="" songCopyrightUrl="" songArtistUrl="" songAudioFileUrl="" stabilizationMode="0" mediaItemType="2" />
    <MediaItem id="88" filePath="C:\Users\SeanPM\Downloads\Pie Pivot-o Archive\22\Video22Description.png" arWidth="96" arHeight="54" duration="0" songTitle="" songArtist="" songAlbum="" songCopyrightUrl="" songArtistUrl="" songAudioFileUrl="" stabilizationMode="0" mediaItemType="2" />
    <MediaItem id="89" filePath="C:\Users\SeanPM\Downloads\Pie Pivot-o Archive\22\Video22Title.png" arWidth="768" arHeight="432" duration="0" songTitle="" songArtist="" songAlbum="" songCopyrightUrl="" songArtistUrl="" songAudioFileUrl="" stabilizationMode="0" mediaItemType="2" />
    <MediaItem id="90" filePath="C:\Users\SeanPM\Downloads\Pie Pivot-o Archive\22\YTP - Squidward and the Canned Bread Epidemic 2.mp4" arWidth="1280" arHeight="720" duration="311.67801129999998" songTitle="" songArtist="" songAlbum="" songCopyrightUrl="" songArtistUrl="" songAudioFileUrl="" stabilizationMode="0" mediaItemType="1" />
    <MediaItem id="91" filePath="C:\Users\SeanPM\Downloads\Pie Pivot-o Archive\23\Thumbnail23.png" arWidth="246" arHeight="138" duration="0" songTitle="" songArtist="" songAlbum="" songCopyrightUrl="" songArtistUrl="" songAudioFileUrl="" stabilizationMode="0" mediaItemType="2" />
    <MediaItem id="92" filePath="C:\Users\SeanPM\Downloads\Pie Pivot-o Archive\23\Video23Description.png" arWidth="1280" arHeight="720" duration="0" songTitle="" songArtist="" songAlbum="" songCopyrightUrl="" songArtistUrl="" songAudioFileUrl="" stabilizationMode="0" mediaItemType="2" />
    <MediaItem id="93" filePath="C:\Users\SeanPM\Downloads\Pie Pivot-o Archive\23\Video23Title.png" arWidth="768" arHeight="432" duration="0" songTitle="" songArtist="" songAlbum="" songCopyrightUrl="" songArtistUrl="" songAudioFileUrl="" stabilizationMode="0" mediaItemType="2" />
    <MediaItem id="94" filePath="C:\Users\SeanPM\Downloads\Pie Pivot-o Archive\23\why do good girls like bad guys ðŸ˜¤.mp4" arWidth="652" arHeight="480" duration="13.561" songTitle="" songArtist="" songAlbum="" songCopyrightUrl="" songArtistUrl="" songAudioFileUrl="" stabilizationMode="0" mediaItemType="1" />
    <MediaItem id="95" filePath="C:\Users\SeanPM\Downloads\Pie Pivot-o Archive\24\Sans Phase.mp4" arWidth="1280" arHeight="720" duration="7.3072739000000002" songTitle="" songArtist="" songAlbum="" songCopyrightUrl="" songArtistUrl="" songAudioFileUrl="" stabilizationMode="0" mediaItemType="1" />
    <MediaItem id="96" filePath="C:\Users\SeanPM\Downloads\Pie Pivot-o Archive\24\Thumbnail24.png" arWidth="246" arHeight="138" duration="0" songTitle="" songArtist="" songAlbum="" songCopyrightUrl="" songArtistUrl="" songAudioFileUrl="" stabilizationMode="0" mediaItemType="2" />
    <MediaItem id="97" filePath="C:\Users\SeanPM\Downloads\Pie Pivot-o Archive\24\Video24Description.png" arWidth="1280" arHeight="720" duration="0" songTitle="" songArtist="" songAlbum="" songCopyrightUrl="" songArtistUrl="" songAudioFileUrl="" stabilizationMode="0" mediaItemType="2" />
    <MediaItem id="98" filePath="C:\Users\SeanPM\Downloads\Pie Pivot-o Archive\24\Video24Title.png" arWidth="1280" arHeight="720" duration="0" songTitle="" songArtist="" songAlbum="" songCopyrightUrl="" songArtistUrl="" songAudioFileUrl="" stabilizationMode="0" mediaItemType="2" />
    <MediaItem id="99" filePath="C:\Users\SeanPM\Downloads\Pie Pivot-o Archive\25\The Goosebumps Mini-YTP Collab.mp4" arWidth="1280" arHeight="720" duration="816.60000000000002" songTitle="" songArtist="" songAlbum="" songCopyrightUrl="" songArtistUrl="" songAudioFileUrl="" stabilizationMode="0" mediaItemType="1" />
    <MediaItem id="100" filePath="C:\Users\SeanPM\Downloads\Pie Pivot-o Archive\25\Thumbnail25.png" arWidth="246" arHeight="138" duration="0" songTitle="" songArtist="" songAlbum="" songCopyrightUrl="" songArtistUrl="" songAudioFileUrl="" stabilizationMode="0" mediaItemType="2" />
    <MediaItem id="101" filePath="C:\Users\SeanPM\Downloads\Pie Pivot-o Archive\25\Video25Description.png" arWidth="1280" arHeight="720" duration="0" songTitle="" songArtist="" songAlbum="" songCopyrightUrl="" songArtistUrl="" songAudioFileUrl="" stabilizationMode="0" mediaItemType="2" />
    <MediaItem id="102" filePath="C:\Users\SeanPM\Downloads\Pie Pivot-o Archive\25\Video25Title.png" arWidth="1280" arHeight="720" duration="0" songTitle="" songArtist="" songAlbum="" songCopyrightUrl="" songArtistUrl="" songAudioFileUrl="" stabilizationMode="0" mediaItemType="2" />
    <MediaItem id="103" filePath="C:\Users\SeanPM\Downloads\Pie Pivot-o Archive\26\Thumbnail26.png" arWidth="246" arHeight="138" duration="0" songTitle="" songArtist="" songAlbum="" songCopyrightUrl="" songArtistUrl="" songAudioFileUrl="" stabilizationMode="0" mediaItemType="2" />
    <MediaItem id="104" filePath="C:\Users\SeanPM\Downloads\Pie Pivot-o Archive\26\Video26Description.png" arWidth="768" arHeight="432" duration="0" songTitle="" songArtist="" songAlbum="" songCopyrightUrl="" songArtistUrl="" songAudioFileUrl="" stabilizationMode="0" mediaItemType="2" />
    <MediaItem id="105" filePath="C:\Users\SeanPM\Downloads\Pie Pivot-o Archive\26\Video26Title.png" arWidth="768" arHeight="432" duration="0" songTitle="" songArtist="" songAlbum="" songCopyrightUrl="" songArtistUrl="" songAudioFileUrl="" stabilizationMode="0" mediaItemType="2" />
    <MediaItem id="106" filePath="C:\Users\SeanPM\Downloads\Pie Pivot-o Archive\26\YTP - I Don't Want It That Way.mp4" arWidth="1280" arHeight="720" duration="391.42435760000001" songTitle="" songArtist="" songAlbum="" songCopyrightUrl="" songArtistUrl="" songAudioFileUrl="" stabilizationMode="0" mediaItemType="1" />
    <MediaItem id="107" filePath="C:\Users\SeanPM\Downloads\Pie Pivot-o Archive\27\Thumbnail27.png" arWidth="246" arHeight="138" duration="0" songTitle="" songArtist="" songAlbum="" songCopyrightUrl="" songArtistUrl="" songAudioFileUrl="" stabilizationMode="0" mediaItemType="2" />
    <MediaItem id="108" filePath="C:\Users\SeanPM\Downloads\Pie Pivot-o Archive\27\Video27Description.png" arWidth="768" arHeight="432" duration="0" songTitle="" songArtist="" songAlbum="" songCopyrightUrl="" songArtistUrl="" songAudioFileUrl="" stabilizationMode="0" mediaItemType="2" />
    <MediaItem id="109" filePath="C:\Users\SeanPM\Downloads\Pie Pivot-o Archive\27\Video27Title.png" arWidth="1280" arHeight="720" duration="0" songTitle="" songArtist="" songAlbum="" songCopyrightUrl="" songArtistUrl="" songAudioFileUrl="" stabilizationMode="0" mediaItemType="2" />
    <MediaItem id="110" filePath="C:\Users\SeanPM\Downloads\Pie Pivot-o Archive\27\YTP - Spongebob's Hostile Christmas Expedition.mp4" arWidth="1280" arHeight="720" duration="235.80220220000001" songTitle="" songArtist="" songAlbum="" songCopyrightUrl="" songArtistUrl="" songAudioFileUrl="" stabilizationMode="0" mediaItemType="1" />
    <MediaItem id="111" filePath="C:\Users\SeanPM\Downloads\Pie Pivot-o Archive\28\Snake mains in a nutshell.mp4" arWidth="1280" arHeight="720" duration="13.41338" songTitle="" songArtist="" songAlbum="" songCopyrightUrl="" songArtistUrl="" songAudioFileUrl="" stabilizationMode="0" mediaItemType="1" />
    <MediaItem id="112" filePath="C:\Users\SeanPM\Downloads\Pie Pivot-o Archive\28\Thumbnail28.png" arWidth="246" arHeight="138" duration="0" songTitle="" songArtist="" songAlbum="" songCopyrightUrl="" songArtistUrl="" songAudioFileUrl="" stabilizationMode="0" mediaItemType="2" />
    <MediaItem id="113" filePath="C:\Users\SeanPM\Downloads\Pie Pivot-o Archive\28\Video28Description.png" arWidth="768" arHeight="432" duration="0" songTitle="" songArtist="" songAlbum="" songCopyrightUrl="" songArtistUrl="" songAudioFileUrl="" stabilizationMode="0" mediaItemType="2" />
    <MediaItem id="114" filePath="C:\Users\SeanPM\Downloads\Pie Pivot-o Archive\28\Video28Title.png" arWidth="1280" arHeight="720" duration="0" songTitle="" songArtist="" songAlbum="" songCopyrightUrl="" songArtistUrl="" songAudioFileUrl="" stabilizationMode="0" mediaItemType="2" />
    <MediaItem id="115" filePath="C:\Users\SeanPM\Downloads\Pie Pivot-o Archive\29\Thumbnail29.png" arWidth="246" arHeight="138" duration="0" songTitle="" songArtist="" songAlbum="" songCopyrightUrl="" songArtistUrl="" songAudioFileUrl="" stabilizationMode="0" mediaItemType="2" />
    <MediaItem id="116" filePath="C:\Users\SeanPM\Downloads\Pie Pivot-o Archive\29\Video29Description.png" arWidth="768" arHeight="432" duration="0" songTitle="" songArtist="" songAlbum="" songCopyrightUrl="" songArtistUrl="" songAudioFileUrl="" stabilizationMode="0" mediaItemType="2" />
    <MediaItem id="117" filePath="C:\Users\SeanPM\Downloads\Pie Pivot-o Archive\29\Video29Title.png" arWidth="1280" arHeight="720" duration="0" songTitle="" songArtist="" songAlbum="" songCopyrightUrl="" songArtistUrl="" songAudioFileUrl="" stabilizationMode="0" mediaItemType="2" />
    <MediaItem id="118" filePath="C:\Users\SeanPM\Downloads\Pie Pivot-o Archive\29\YTP - Shrek Practices A Roundhouse Kick.mp4" arWidth="1280" arHeight="720" duration="144.64435259999999" songTitle="" songArtist="" songAlbum="" songCopyrightUrl="" songArtistUrl="" songAudioFileUrl="" stabilizationMode="0" mediaItemType="1" />
    <MediaItem id="119" filePath="C:\Users\SeanPM\Downloads\Pie Pivot-o Archive\30\Strongest Forward Aerial - Super Smash Bros. Ultimate.mp4" arWidth="1280" arHeight="720" duration="159.82632630000001" songTitle="" songArtist="" songAlbum="" songCopyrightUrl="" songArtistUrl="" songAudioFileUrl="" stabilizationMode="0" mediaItemType="1" />
    <MediaItem id="120" filePath="C:\Users\SeanPM\Downloads\Pie Pivot-o Archive\30\Thumbnail30.png" arWidth="246" arHeight="138" duration="0" songTitle="" songArtist="" songAlbum="" songCopyrightUrl="" songArtistUrl="" songAudioFileUrl="" stabilizationMode="0" mediaItemType="2" />
    <MediaItem id="121" filePath="C:\Users\SeanPM\Downloads\Pie Pivot-o Archive\30\Video30Description.png" arWidth="1280" arHeight="720" duration="0" songTitle="" songArtist="" songAlbum="" songCopyrightUrl="" songArtistUrl="" songAudioFileUrl="" stabilizationMode="0" mediaItemType="2" />
    <MediaItem id="122" filePath="C:\Users\SeanPM\Downloads\Pie Pivot-o Archive\30\Video30Title.png" arWidth="1280" arHeight="720" duration="0" songTitle="" songArtist="" songAlbum="" songCopyrightUrl="" songArtistUrl="" songAudioFileUrl="" stabilizationMode="0" mediaItemType="2" />
    <MediaItem id="123" filePath="C:\Users\SeanPM\Downloads\Pie Pivot-o Archive\Ending.png" arWidth="1280" arHeight="720" duration="0" songTitle="" songArtist="" songAlbum="" songCopyrightUrl="" songArtistUrl="" songAudioFileUrl="" stabilizationMode="0" mediaItemType="2" />
  </MediaItems>
  <Extents>
    <VideoClip extentID="5" gapBefore="0" mediaItemID="1" inTime="0" outTime="0" speed="1" stabilizationMode="0">
      <Effects />
      <Transitions />
      <BoundProperties>
        <BoundPropertyBool Name="Mute" Value="false" />
        <BoundPropertyInt Name="rotateStepNinety" Value="0" />
        <BoundPropertyFloat Name="Volume" Value="1" />
      </BoundProperties>
    </VideoClip>
    <ImageClip extentID="6" gapBefore="0" mediaItemID="2" duration="1.5">
      <Effects />
      <Transitions>
        <ShaderEffect effectTemplateID="FilledVLeftTransitionTemplate" duration="1.5">
          <BoundProperties />
        </ShaderEffect>
      </Transitions>
      <BoundProperties>
        <BoundPropertyInt Name="rotateStepNinety" Value="0" />
      </BoundProperties>
    </ImageClip>
    <ImageClip extentID="7" gapBefore="0" mediaItemID="3" duration="7">
      <Effects />
      <Transitions>
        <ShaderEffect effectTemplateID="FilledVDownTransitionTemplate" duration="1.5">
          <BoundProperties />
        </ShaderEffect>
      </Transitions>
      <BoundProperties>
        <BoundPropertyInt Name="rotateStepNinety" Value="0" />
      </BoundProperties>
    </ImageClip>
    <ImageClip extentID="8" gapBefore="0" mediaItemID="4" duration="5">
      <Effects />
      <Transitions>
        <ShaderEffect effectTemplateID="CircleTransitionTemplate" duration="1.5">
          <BoundProperties />
        </ShaderEffect>
      </Transitions>
      <BoundProperties>
        <BoundPropertyInt Name="rotateStepNinety" Value="0" />
      </BoundProperties>
    </ImageClip>
    <ImageClip extentID="9" gapBefore="0" mediaItemID="5" duration="6">
      <Effects>
        <ShaderEffect effectTemplateID="EdgeDetectionEffectTemplate">
          <BoundProperties />
        </ShaderEffect>
      </Effects>
      <Transitions>
        <ShapeEffect effectTemplateID="CinematicFadeThroughGrayTransitionTemplate" duration="4">
          <BoundProperties />
        </ShapeEffect>
      </Transitions>
      <BoundProperties>
        <BoundPropertyInt Name="rotateStepNinety" Value="0" />
      </BoundProperties>
    </ImageClip>
    <ImageClip extentID="10" gapBefore="0" mediaItemID="6" duration="3">
      <Effects />
      <Transitions>
        <ShaderEffect effectTemplateID="EyeTransitionTemplate" duration="1.5">
          <BoundProperties />
        </ShaderEffect>
      </Transitions>
      <BoundProperties>
        <BoundPropertyInt Name="rotateStepNinety" Value="0" />
      </BoundProperties>
    </ImageClip>
    <ImageClip extentID="11" gapBefore="0" mediaItemID="7" duration="1.5">
      <Effects />
      <Transitions>
        <ShaderEffect effectTemplateID="FilledVLeftTransitionTemplate" duration="1.5">
          <BoundProperties />
        </ShaderEffect>
      </Transitions>
      <BoundProperties>
        <BoundPropertyInt Name="rotateStepNinety" Value="0" />
      </BoundProperties>
    </ImageClip>
    <ImageClip extentID="12" gapBefore="0" mediaItemID="8" duration="7">
      <Effects />
      <Transitions>
        <ShaderEffect effectTemplateID="FilledVDownTransitionTemplate" duration="1.5">
          <BoundProperties />
        </ShaderEffect>
      </Transitions>
      <BoundProperties>
        <BoundPropertyInt Name="rotateStepNinety" Value="0" />
      </BoundProperties>
    </ImageClip>
    <ImageClip extentID="13" gapBefore="0" mediaItemID="9" duration="5">
      <Effects />
      <Transitions>
        <ShaderEffect effectTemplateID="CircleTransitionTemplate" duration="1.5">
          <BoundProperties />
        </ShaderEffect>
      </Transitions>
      <BoundProperties>
        <BoundPropertyInt Name="rotateStepNinety" Value="0" />
      </BoundProperties>
    </ImageClip>
    <VideoClip extentID="14" gapBefore="0" mediaItemID="10" inTime="0" outTime="0" speed="1" stabilizationMode="0">
      <Effects />
      <Transitions />
      <BoundProperties>
        <BoundPropertyBool Name="Mute" Value="false" />
        <BoundPropertyInt Name="rotateStepNinety" Value="0" />
        <BoundPropertyFloat Name="Volume" Value="1" />
      </BoundProperties>
    </VideoClip>
    <ImageClip extentID="15" gapBefore="0" mediaItemID="11" duration="1.5">
      <Effects />
      <Transitions>
        <ShaderEffect effectTemplateID="FilledVLeftTransitionTemplate" duration="1.5">
          <BoundProperties />
        </ShaderEffect>
      </Transitions>
      <BoundProperties>
        <BoundPropertyInt Name="rotateStepNinety" Value="0" />
      </BoundProperties>
    </ImageClip>
    <ImageClip extentID="16" gapBefore="0" mediaItemID="12" duration="7">
      <Effects />
      <Transitions>
        <ShaderEffect effectTemplateID="FilledVDownTransitionTemplate" duration="1.5">
          <BoundProperties />
        </ShaderEffect>
      </Transitions>
      <BoundProperties>
        <BoundPropertyInt Name="rotateStepNinety" Value="0" />
      </BoundProperties>
    </ImageClip>
    <ImageClip extentID="17" gapBefore="0" mediaItemID="13" duration="5">
      <Effects />
      <Transitions>
        <ShaderEffect effectTemplateID="CircleTransitionTemplate" duration="1.5">
          <BoundProperties />
        </ShaderEffect>
      </Transitions>
      <BoundProperties>
        <BoundPropertyInt Name="rotateStepNinety" Value="0" />
      </BoundProperties>
    </ImageClip>
    <VideoClip extentID="18" gapBefore="0" mediaItemID="14" inTime="0" outTime="0" speed="1" stabilizationMode="0">
      <Effects />
      <Transitions />
      <BoundProperties>
        <BoundPropertyBool Name="Mute" Value="false" />
        <BoundPropertyInt Name="rotateStepNinety" Value="0" />
        <BoundPropertyFloat Name="Volume" Value="1" />
      </BoundProperties>
    </VideoClip>
    <ImageClip extentID="19" gapBefore="0" mediaItemID="15" duration="1.5">
      <Effects />
      <Transitions>
        <ShaderEffect effectTemplateID="FilledVLeftTransitionTemplate" duration="1.5">
          <BoundProperties />
        </ShaderEffect>
      </Transitions>
      <BoundProperties>
        <BoundPropertyInt Name="rotateStepNinety" Value="0" />
      </BoundProperties>
    </ImageClip>
    <ImageClip extentID="20" gapBefore="0" mediaItemID="16" duration="7">
      <Effects />
      <Transitions>
        <ShaderEffect effectTemplateID="FilledVDownTransitionTemplate" duration="1.5">
          <BoundProperties />
        </ShaderEffect>
      </Transitions>
      <BoundProperties>
        <BoundPropertyInt Name="rotateStepNinety" Value="0" />
      </BoundProperties>
    </ImageClip>
    <ImageClip extentID="21" gapBefore="0" mediaItemID="17" duration="5">
      <Effects />
      <Transitions>
        <ShaderEffect effectTemplateID="CircleTransitionTemplate" duration="1.5">
          <BoundProperties />
        </ShaderEffect>
      </Transitions>
      <BoundProperties>
        <BoundPropertyInt Name="rotateStepNinety" Value="0" />
      </BoundProperties>
    </ImageClip>
    <VideoClip extentID="22" gapBefore="0" mediaItemID="18" inTime="0" outTime="0" speed="1" stabilizationMode="0">
      <Effects />
      <Transitions />
      <BoundProperties>
        <BoundPropertyBool Name="Mute" Value="false" />
        <BoundPropertyInt Name="rotateStepNinety" Value="0" />
        <BoundPropertyFloat Name="Volume" Value="1" />
      </BoundProperties>
    </VideoClip>
    <ImageClip extentID="23" gapBefore="0" mediaItemID="19" duration="5">
      <Effects />
      <Transitions>
        <ShaderEffect effectTemplateID="CircleTransitionTemplate" duration="1.5">
          <BoundProperties />
        </ShaderEffect>
      </Transitions>
      <BoundProperties>
        <BoundPropertyInt Name="rotateStepNinety" Value="0" />
      </BoundProperties>
    </ImageClip>
    <ImageClip extentID="24" gapBefore="0" mediaItemID="20" duration="1.5">
      <Effects />
      <Transitions>
        <ShaderEffect effectTemplateID="FilledVLeftTransitionTemplate" duration="1.5">
          <BoundProperties />
        </ShaderEffect>
      </Transitions>
      <BoundProperties>
        <BoundPropertyInt Name="rotateStepNinety" Value="0" />
      </BoundProperties>
    </ImageClip>
    <ImageClip extentID="25" gapBefore="0" mediaItemID="21" duration="7">
      <Effects />
      <Transitions>
        <ShaderEffect effectTemplateID="FilledVDownTransitionTemplate" duration="1.5">
          <BoundProperties />
        </ShaderEffect>
      </Transitions>
      <BoundProperties>
        <BoundPropertyInt Name="rotateStepNinety" Value="0" />
      </BoundProperties>
    </ImageClip>
    <VideoClip extentID="26" gapBefore="0" mediaItemID="22" inTime="0" outTime="0" speed="1" stabilizationMode="0">
      <Effects />
      <Transitions />
      <BoundProperties>
        <BoundPropertyBool Name="Mute" Value="false" />
        <BoundPropertyInt Name="rotateStepNinety" Value="0" />
        <BoundPropertyFloat Name="Volume" Value="1" />
      </BoundProperties>
    </VideoClip>
    <ImageClip extentID="27" gapBefore="0" mediaItemID="23" duration="1.5">
      <Effects />
      <Transitions>
        <ShaderEffect effectTemplateID="FilledVLeftTransitionTemplate" duration="1.5">
          <BoundProperties />
        </ShaderEffect>
      </Transitions>
      <BoundProperties>
        <BoundPropertyInt Name="rotateStepNinety" Value="0" />
      </BoundProperties>
    </ImageClip>
    <ImageClip extentID="28" gapBefore="0" mediaItemID="24" duration="7">
      <Effects />
      <Transitions>
        <ShaderEffect effectTemplateID="FilledVDownTransitionTemplate" duration="1.5">
          <BoundProperties />
        </ShaderEffect>
      </Transitions>
      <BoundProperties>
        <BoundPropertyInt Name="rotateStepNinety" Value="0" />
      </BoundProperties>
    </ImageClip>
    <ImageClip extentID="29" gapBefore="0" mediaItemID="25" duration="5">
      <Effects />
      <Transitions>
        <ShaderEffect effectTemplateID="CircleTransitionTemplate" duration="1.5">
          <BoundProperties />
        </ShaderEffect>
      </Transitions>
      <BoundProperties>
        <BoundPropertyInt Name="rotateStepNinety" Value="0" />
      </BoundProperties>
    </ImageClip>
    <VideoClip extentID="30" gapBefore="0" mediaItemID="26" inTime="0" outTime="0" speed="1" stabilizationMode="0">
      <Effects />
      <Transitions />
      <BoundProperties>
        <BoundPropertyBool Name="Mute" Value="false" />
        <BoundPropertyInt Name="rotateStepNinety" Value="0" />
        <BoundPropertyFloat Name="Volume" Value="1" />
      </BoundProperties>
    </VideoClip>
    <VideoClip extentID="31" gapBefore="0" mediaItemID="27" inTime="0" outTime="0" speed="1" stabilizationMode="0">
      <Effects />
      <Transitions />
      <BoundProperties>
        <BoundPropertyBool Name="Mute" Value="false" />
        <BoundPropertyInt Name="rotateStepNinety" Value="0" />
        <BoundPropertyFloat Name="Volume" Value="1" />
      </BoundProperties>
    </VideoClip>
    <ImageClip extentID="32" gapBefore="0" mediaItemID="28" duration="1.5">
      <Effects />
      <Transitions>
        <ShaderEffect effectTemplateID="FilledVLeftTransitionTemplate" duration="1.5">
          <BoundProperties />
        </ShaderEffect>
      </Transitions>
      <BoundProperties>
        <BoundPropertyInt Name="rotateStepNinety" Value="0" />
      </BoundProperties>
    </ImageClip>
    <ImageClip extentID="33" gapBefore="0" mediaItemID="29" duration="7">
      <Effects />
      <Transitions>
        <ShaderEffect effectTemplateID="FilledVDownTransitionTemplate" duration="1.5">
          <BoundProperties />
        </ShaderEffect>
      </Transitions>
      <BoundProperties>
        <BoundPropertyInt Name="rotateStepNinety" Value="0" />
      </BoundProperties>
    </ImageClip>
    <ImageClip extentID="34" gapBefore="0" mediaItemID="30" duration="5">
      <Effects />
      <Transitions>
        <ShaderEffect effectTemplateID="CircleTransitionTemplate" duration="1.5">
          <BoundProperties />
        </ShaderEffect>
      </Transitions>
      <BoundProperties>
        <BoundPropertyInt Name="rotateStepNinety" Value="0" />
      </BoundProperties>
    </ImageClip>
    <ImageClip extentID="35" gapBefore="0" mediaItemID="31" duration="1.5">
      <Effects />
      <Transitions>
        <ShaderEffect effectTemplateID="FilledVLeftTransitionTemplate" duration="1.5">
          <BoundProperties />
        </ShaderEffect>
      </Transitions>
      <BoundProperties>
        <BoundPropertyInt Name="rotateStepNinety" Value="0" />
      </BoundProperties>
    </ImageClip>
    <ImageClip extentID="36" gapBefore="0" mediaItemID="32" duration="7">
      <Effects />
      <Transitions>
        <ShaderEffect effectTemplateID="FilledVDownTransitionTemplate" duration="1.5">
          <BoundProperties />
        </ShaderEffect>
      </Transitions>
      <BoundProperties>
        <BoundPropertyInt Name="rotateStepNinety" Value="0" />
      </BoundProperties>
    </ImageClip>
    <ImageClip extentID="37" gapBefore="0" mediaItemID="33" duration="5">
      <Effects />
      <Transitions>
        <ShaderEffect effectTemplateID="CircleTransitionTemplate" duration="1.5">
          <BoundProperties />
        </ShaderEffect>
      </Transitions>
      <BoundProperties>
        <BoundPropertyInt Name="rotateStepNinety" Value="0" />
      </BoundProperties>
    </ImageClip>
    <VideoClip extentID="38" gapBefore="0" mediaItemID="34" inTime="0" outTime="0" speed="1" stabilizationMode="0">
      <Effects />
      <Transitions />
      <BoundProperties>
        <BoundPropertyBool Name="Mute" Value="false" />
        <BoundPropertyInt Name="rotateStepNinety" Value="0" />
        <BoundPropertyFloat Name="Volume" Value="1" />
      </BoundProperties>
    </VideoClip>
    <ImageClip extentID="39" gapBefore="0" mediaItemID="35" duration="1.5">
      <Effects />
      <Transitions>
        <ShaderEffect effectTemplateID="FilledVLeftTransitionTemplate" duration="1.5">
          <BoundProperties />
        </ShaderEffect>
      </Transitions>
      <BoundProperties>
        <BoundPropertyInt Name="rotateStepNinety" Value="0" />
      </BoundProperties>
    </ImageClip>
    <ImageClip extentID="40" gapBefore="0" mediaItemID="36" duration="7">
      <Effects />
      <Transitions>
        <ShaderEffect effectTemplateID="FilledVDownTransitionTemplate" duration="1.5">
          <BoundProperties />
        </ShaderEffect>
      </Transitions>
      <BoundProperties>
        <BoundPropertyInt Name="rotateStepNinety" Value="0" />
      </BoundProperties>
    </ImageClip>
    <ImageClip extentID="41" gapBefore="0" mediaItemID="37" duration="5">
      <Effects />
      <Transitions>
        <ShaderEffect effectTemplateID="CircleTransitionTemplate" duration="1.5">
          <BoundProperties />
        </ShaderEffect>
      </Transitions>
      <BoundProperties>
        <BoundPropertyInt Name="rotateStepNinety" Value="0" />
      </BoundProperties>
    </ImageClip>
    <VideoClip extentID="42" gapBefore="0" mediaItemID="38" inTime="0" outTime="0" speed="1" stabilizationMode="0">
      <Effects />
      <Transitions />
      <BoundProperties>
        <BoundPropertyBool Name="Mute" Value="false" />
        <BoundPropertyInt Name="rotateStepNinety" Value="0" />
        <BoundPropertyFloat Name="Volume" Value="1" />
      </BoundProperties>
    </VideoClip>
    <ImageClip extentID="43" gapBefore="0" mediaItemID="39" duration="1.5">
      <Effects />
      <Transitions>
        <ShaderEffect effectTemplateID="FilledVLeftTransitionTemplate" duration="1.5">
          <BoundProperties />
        </ShaderEffect>
      </Transitions>
      <BoundProperties>
        <BoundPropertyInt Name="rotateStepNinety" Value="0" />
      </BoundProperties>
    </ImageClip>
    <ImageClip extentID="44" gapBefore="0" mediaItemID="40" duration="7">
      <Effects />
      <Transitions>
        <ShaderEffect effectTemplateID="FilledVDownTransitionTemplate" duration="1.5">
          <BoundProperties />
        </ShaderEffect>
      </Transitions>
      <BoundProperties>
        <BoundPropertyInt Name="rotateStepNinety" Value="0" />
      </BoundProperties>
    </ImageClip>
    <ImageClip extentID="45" gapBefore="0" mediaItemID="41" duration="5">
      <Effects />
      <Transitions>
        <ShaderEffect effectTemplateID="CircleTransitionTemplate" duration="1.5">
          <BoundProperties />
        </ShaderEffect>
      </Transitions>
      <BoundProperties>
        <BoundPropertyInt Name="rotateStepNinety" Value="0" />
      </BoundProperties>
    </ImageClip>
    <VideoClip extentID="46" gapBefore="0" mediaItemID="42" inTime="0" outTime="0" speed="1" stabilizationMode="0">
      <Effects />
      <Transitions />
      <BoundProperties>
        <BoundPropertyBool Name="Mute" Value="false" />
        <BoundPropertyInt Name="rotateStepNinety" Value="0" />
        <BoundPropertyFloat Name="Volume" Value="1" />
      </BoundProperties>
    </VideoClip>
    <ImageClip extentID="47" gapBefore="0" mediaItemID="43" duration="1.5">
      <Effects />
      <Transitions>
        <ShaderEffect effectTemplateID="FilledVLeftTransitionTemplate" duration="1.5">
          <BoundProperties />
        </ShaderEffect>
      </Transitions>
      <BoundProperties>
        <BoundPropertyInt Name="rotateStepNinety" Value="0" />
      </BoundProperties>
    </ImageClip>
    <ImageClip extentID="48" gapBefore="0" mediaItemID="44" duration="7">
      <Effects />
      <Transitions>
        <ShaderEffect effectTemplateID="FilledVDownTransitionTemplate" duration="1.5">
          <BoundProperties />
        </ShaderEffect>
      </Transitions>
      <BoundProperties>
        <BoundPropertyInt Name="rotateStepNinety" Value="0" />
      </BoundProperties>
    </ImageClip>
    <ImageClip extentID="49" gapBefore="0" mediaItemID="45" duration="5">
      <Effects />
      <Transitions>
        <ShaderEffect effectTemplateID="CircleTransitionTemplate" duration="1.5">
          <BoundProperties />
        </ShaderEffect>
      </Transitions>
      <BoundProperties>
        <BoundPropertyInt Name="rotateStepNinety" Value="0" />
      </BoundProperties>
    </ImageClip>
    <VideoClip extentID="50" gapBefore="0" mediaItemID="46" inTime="0" outTime="0" speed="1" stabilizationMode="0">
      <Effects />
      <Transitions />
      <BoundProperties>
        <BoundPropertyBool Name="Mute" Value="false" />
        <BoundPropertyInt Name="rotateStepNinety" Value="0" />
        <BoundPropertyFloat Name="Volume" Value="1" />
      </BoundProperties>
    </VideoClip>
    <ImageClip extentID="51" gapBefore="0" mediaItemID="47" duration="1.5">
      <Effects />
      <Transitions>
        <ShaderEffect effectTemplateID="FilledVLeftTransitionTemplate" duration="1.5">
          <BoundProperties />
        </ShaderEffect>
      </Transitions>
      <BoundProperties>
        <BoundPropertyInt Name="rotateStepNinety" Value="0" />
      </BoundProperties>
    </ImageClip>
    <ImageClip extentID="52" gapBefore="0" mediaItemID="48" duration="7">
      <Effects />
      <Transitions>
        <ShaderEffect effectTemplateID="FilledVDownTransitionTemplate" duration="1.5">
          <BoundProperties />
        </ShaderEffect>
      </Transitions>
      <BoundProperties>
        <BoundPropertyInt Name="rotateStepNinety" Value="0" />
      </BoundProperties>
    </ImageClip>
    <ImageClip extentID="53" gapBefore="0" mediaItemID="49" duration="5">
      <Effects />
      <Transitions>
        <ShaderEffect effectTemplateID="CircleTransitionTemplate" duration="1.5">
          <BoundProperties />
        </ShaderEffect>
      </Transitions>
      <BoundProperties>
        <BoundPropertyInt Name="rotateStepNinety" Value="0" />
      </BoundProperties>
    </ImageClip>
    <VideoClip extentID="54" gapBefore="0" mediaItemID="50" inTime="0" outTime="0" speed="1" stabilizationMode="0">
      <Effects />
      <Transitions />
      <BoundProperties>
        <BoundPropertyBool Name="Mute" Value="false" />
        <BoundPropertyInt Name="rotateStepNinety" Value="0" />
        <BoundPropertyFloat Name="Volume" Value="1" />
      </BoundProperties>
    </VideoClip>
    <VideoClip extentID="55" gapBefore="0" mediaItemID="51" inTime="0" outTime="0" speed="1" stabilizationMode="0">
      <Effects />
      <Transitions />
      <BoundProperties>
        <BoundPropertyBool Name="Mute" Value="false" />
        <BoundPropertyInt Name="rotateStepNinety" Value="0" />
        <BoundPropertyFloat Name="Volume" Value="1" />
      </BoundProperties>
    </VideoClip>
    <ImageClip extentID="56" gapBefore="0" mediaItemID="52" duration="1.5">
      <Effects />
      <Transitions>
        <ShaderEffect effectTemplateID="FilledVLeftTransitionTemplate" duration="1.5">
          <BoundProperties />
        </ShaderEffect>
      </Transitions>
      <BoundProperties>
        <BoundPropertyInt Name="rotateStepNinety" Value="0" />
      </BoundProperties>
    </ImageClip>
    <ImageClip extentID="57" gapBefore="0" mediaItemID="53" duration="7">
      <Effects />
      <Transitions>
        <ShaderEffect effectTemplateID="FilledVDownTransitionTemplate" duration="1.5">
          <BoundProperties />
        </ShaderEffect>
      </Transitions>
      <BoundProperties>
        <BoundPropertyInt Name="rotateStepNinety" Value="0" />
      </BoundProperties>
    </ImageClip>
    <ImageClip extentID="58" gapBefore="0" mediaItemID="54" duration="5">
      <Effects />
      <Transitions>
        <ShaderEffect effectTemplateID="CircleTransitionTemplate" duration="1.5">
          <BoundProperties />
        </ShaderEffect>
      </Transitions>
      <BoundProperties>
        <BoundPropertyInt Name="rotateStepNinety" Value="0" />
      </BoundProperties>
    </ImageClip>
    <ImageClip extentID="59" gapBefore="0" mediaItemID="55" duration="1.5">
      <Effects />
      <Transitions>
        <ShaderEffect effectTemplateID="FilledVLeftTransitionTemplate" duration="1.5">
          <BoundProperties />
        </ShaderEffect>
      </Transitions>
      <BoundProperties>
        <BoundPropertyInt Name="rotateStepNinety" Value="0" />
      </BoundProperties>
    </ImageClip>
    <ImageClip extentID="60" gapBefore="0" mediaItemID="56" duration="7">
      <Effects />
      <Transitions>
        <ShaderEffect effectTemplateID="FilledVDownTransitionTemplate" duration="1.5">
          <BoundProperties />
        </ShaderEffect>
      </Transitions>
      <BoundProperties>
        <BoundPropertyInt Name="rotateStepNinety" Value="0" />
      </BoundProperties>
    </ImageClip>
    <ImageClip extentID="61" gapBefore="0" mediaItemID="57" duration="5">
      <Effects />
      <Transitions>
        <ShaderEffect effectTemplateID="CircleTransitionTemplate" duration="1.5">
          <BoundProperties />
        </ShaderEffect>
      </Transitions>
      <BoundProperties>
        <BoundPropertyInt Name="rotateStepNinety" Value="0" />
      </BoundProperties>
    </ImageClip>
    <VideoClip extentID="62" gapBefore="0" mediaItemID="58" inTime="0" outTime="0" speed="1" stabilizationMode="0">
      <Effects />
      <Transitions />
      <BoundProperties>
        <BoundPropertyBool Name="Mute" Value="false" />
        <BoundPropertyInt Name="rotateStepNinety" Value="0" />
        <BoundPropertyFloat Name="Volume" Value="1" />
      </BoundProperties>
    </VideoClip>
    <VideoClip extentID="63" gapBefore="0" mediaItemID="59" inTime="0" outTime="0" speed="1" stabilizationMode="0">
      <Effects />
      <Transitions />
      <BoundProperties>
        <BoundPropertyBool Name="Mute" Value="false" />
        <BoundPropertyInt Name="rotateStepNinety" Value="0" />
        <BoundPropertyFloat Name="Volume" Value="1" />
      </BoundProperties>
    </VideoClip>
    <ImageClip extentID="64" gapBefore="0" mediaItemID="60" duration="1.5">
      <Effects />
      <Transitions>
        <ShaderEffect effectTemplateID="FilledVLeftTransitionTemplate" duration="1.5">
          <BoundProperties />
        </ShaderEffect>
      </Transitions>
      <BoundProperties>
        <BoundPropertyInt Name="rotateStepNinety" Value="0" />
      </BoundProperties>
    </ImageClip>
    <ImageClip extentID="65" gapBefore="0" mediaItemID="61" duration="7">
      <Effects />
      <Transitions>
        <ShaderEffect effectTemplateID="FilledVDownTransitionTemplate" duration="1.5">
          <BoundProperties />
        </ShaderEffect>
      </Transitions>
      <BoundProperties>
        <BoundPropertyInt Name="rotateStepNinety" Value="0" />
      </BoundProperties>
    </ImageClip>
    <ImageClip extentID="66" gapBefore="0" mediaItemID="62" duration="5">
      <Effects />
      <Transitions>
        <ShaderEffect effectTemplateID="CircleTransitionTemplate" duration="1.5">
          <BoundProperties />
        </ShaderEffect>
      </Transitions>
      <BoundProperties>
        <BoundPropertyInt Name="rotateStepNinety" Value="0" />
      </BoundProperties>
    </ImageClip>
    <VideoClip extentID="67" gapBefore="0" mediaItemID="63" inTime="0" outTime="0" speed="1" stabilizationMode="0">
      <Effects />
      <Transitions />
      <BoundProperties>
        <BoundPropertyBool Name="Mute" Value="false" />
        <BoundPropertyInt Name="rotateStepNinety" Value="0" />
        <BoundPropertyFloat Name="Volume" Value="1" />
      </BoundProperties>
    </VideoClip>
    <ImageClip extentID="68" gapBefore="0" mediaItemID="64" duration="1.5">
      <Effects />
      <Transitions>
        <ShaderEffect effectTemplateID="FilledVLeftTransitionTemplate" duration="1.5">
          <BoundProperties />
        </ShaderEffect>
      </Transitions>
      <BoundProperties>
        <BoundPropertyInt Name="rotateStepNinety" Value="0" />
      </BoundProperties>
    </ImageClip>
    <ImageClip extentID="69" gapBefore="0" mediaItemID="65" duration="7">
      <Effects />
      <Transitions>
        <ShaderEffect effectTemplateID="FilledVDownTransitionTemplate" duration="1.5">
          <BoundProperties />
        </ShaderEffect>
      </Transitions>
      <BoundProperties>
        <BoundPropertyInt Name="rotateStepNinety" Value="0" />
      </BoundProperties>
    </ImageClip>
    <ImageClip extentID="70" gapBefore="0" mediaItemID="66" duration="5">
      <Effects />
      <Transitions>
        <ShaderEffect effectTemplateID="CircleTransitionTemplate" duration="1.5">
          <BoundProperties />
        </ShaderEffect>
      </Transitions>
      <BoundProperties>
        <BoundPropertyInt Name="rotateStepNinety" Value="0" />
      </BoundProperties>
    </ImageClip>
    <ImageClip extentID="71" gapBefore="0" mediaItemID="67" duration="1.5">
      <Effects />
      <Transitions>
        <ShaderEffect effectTemplateID="FilledVRightTransitionTemplate" duration="1.5">
          <BoundProperties />
        </ShaderEffect>
      </Transitions>
      <BoundProperties>
        <BoundPropertyInt Name="rotateStepNinety" Value="0" />
      </BoundProperties>
    </ImageClip>
    <ImageClip extentID="72" gapBefore="0" mediaItemID="68" duration="7">
      <Effects />
      <Transitions>
        <ShaderEffect effectTemplateID="FilledVDownTransitionTemplate" duration="1.5">
          <BoundProperties />
        </ShaderEffect>
      </Transitions>
      <BoundProperties>
        <BoundPropertyInt Name="rotateStepNinety" Value="0" />
      </BoundProperties>
    </ImageClip>
    <ImageClip extentID="73" gapBefore="0" mediaItemID="69" duration="5">
      <Effects />
      <Transitions>
        <ShaderEffect effectTemplateID="CircleTransitionTemplate" duration="1.5">
          <BoundProperties />
        </ShaderEffect>
      </Transitions>
      <BoundProperties>
        <BoundPropertyInt Name="rotateStepNinety" Value="0" />
      </BoundProperties>
    </ImageClip>
    <VideoClip extentID="74" gapBefore="0" mediaItemID="70" inTime="0" outTime="0" speed="1" stabilizationMode="0">
      <Effects />
      <Transitions />
      <BoundProperties>
        <BoundPropertyBool Name="Mute" Value="false" />
        <BoundPropertyInt Name="rotateStepNinety" Value="0" />
        <BoundPropertyFloat Name="Volume" Value="1" />
      </BoundProperties>
    </VideoClip>
    <VideoClip extentID="75" gapBefore="0" mediaItemID="71" inTime="0" outTime="0" speed="1" stabilizationMode="0">
      <Effects />
      <Transitions />
      <BoundProperties>
        <BoundPropertyBool Name="Mute" Value="false" />
        <BoundPropertyInt Name="rotateStepNinety" Value="0" />
        <BoundPropertyFloat Name="Volume" Value="1" />
      </BoundProperties>
    </VideoClip>
    <ImageClip extentID="76" gapBefore="0" mediaItemID="72" duration="1.5">
      <Effects />
      <Transitions>
        <ShaderEffect effectTemplateID="FilledVRightTransitionTemplate" duration="1.5">
          <BoundProperties />
        </ShaderEffect>
      </Transitions>
      <BoundProperties>
        <BoundPropertyInt Name="rotateStepNinety" Value="0" />
      </BoundProperties>
    </ImageClip>
    <ImageClip extentID="77" gapBefore="0" mediaItemID="73" duration="7">
      <Effects />
      <Transitions>
        <ShaderEffect effectTemplateID="FilledVDownTransitionTemplate" duration="1.5">
          <BoundProperties />
        </ShaderEffect>
      </Transitions>
      <BoundProperties>
        <BoundPropertyInt Name="rotateStepNinety" Value="0" />
      </BoundProperties>
    </ImageClip>
    <ImageClip extentID="78" gapBefore="0" mediaItemID="74" duration="5">
      <Effects />
      <Transitions>
        <ShaderEffect effectTemplateID="CircleTransitionTemplate" duration="1.5">
          <BoundProperties />
        </ShaderEffect>
      </Transitions>
      <BoundProperties>
        <BoundPropertyInt Name="rotateStepNinety" Value="0" />
      </BoundProperties>
    </ImageClip>
    <ImageClip extentID="79" gapBefore="0" mediaItemID="75" duration="1.5">
      <Effects />
      <Transitions>
        <ShaderEffect effectTemplateID="FilledVLeftTransitionTemplate" duration="1.5">
          <BoundProperties />
        </ShaderEffect>
      </Transitions>
      <BoundProperties>
        <BoundPropertyInt Name="rotateStepNinety" Value="0" />
      </BoundProperties>
    </ImageClip>
    <ImageClip extentID="80" gapBefore="0" mediaItemID="76" duration="7">
      <Effects />
      <Transitions>
        <ShaderEffect effectTemplateID="FilledVDownTransitionTemplate" duration="1.5">
          <BoundProperties />
        </ShaderEffect>
      </Transitions>
      <BoundProperties>
        <BoundPropertyInt Name="rotateStepNinety" Value="0" />
      </BoundProperties>
    </ImageClip>
    <ImageClip extentID="81" gapBefore="0" mediaItemID="77" duration="5">
      <Effects />
      <Transitions>
        <ShaderEffect effectTemplateID="CircleTransitionTemplate" duration="1.5">
          <BoundProperties />
        </ShaderEffect>
      </Transitions>
      <BoundProperties>
        <BoundPropertyInt Name="rotateStepNinety" Value="0" />
      </BoundProperties>
    </ImageClip>
    <VideoClip extentID="82" gapBefore="0" mediaItemID="78" inTime="0" outTime="0" speed="1" stabilizationMode="0">
      <Effects />
      <Transitions />
      <BoundProperties>
        <BoundPropertyBool Name="Mute" Value="false" />
        <BoundPropertyInt Name="rotateStepNinety" Value="0" />
        <BoundPropertyFloat Name="Volume" Value="1" />
      </BoundProperties>
    </VideoClip>
    <ImageClip extentID="83" gapBefore="0" mediaItemID="79" duration="1.5">
      <Effects />
      <Transitions>
        <ShaderEffect effectTemplateID="FilledVLeftTransitionTemplate" duration="1.5">
          <BoundProperties />
        </ShaderEffect>
      </Transitions>
      <BoundProperties>
        <BoundPropertyInt Name="rotateStepNinety" Value="0" />
      </BoundProperties>
    </ImageClip>
    <ImageClip extentID="84" gapBefore="0" mediaItemID="80" duration="7">
      <Effects />
      <Transitions>
        <ShaderEffect effectTemplateID="FilledVDownTransitionTemplate" duration="1.5">
          <BoundProperties />
        </ShaderEffect>
      </Transitions>
      <BoundProperties>
        <BoundPropertyInt Name="rotateStepNinety" Value="0" />
      </BoundProperties>
    </ImageClip>
    <ImageClip extentID="85" gapBefore="0" mediaItemID="81" duration="5">
      <Effects />
      <Transitions>
        <ShaderEffect effectTemplateID="CircleTransitionTemplate" duration="1.5">
          <BoundProperties />
        </ShaderEffect>
      </Transitions>
      <BoundProperties>
        <BoundPropertyInt Name="rotateStepNinety" Value="0" />
      </BoundProperties>
    </ImageClip>
    <VideoClip extentID="86" gapBefore="0" mediaItemID="82" inTime="0" outTime="0" speed="1" stabilizationMode="0">
      <Effects />
      <Transitions />
      <BoundProperties>
        <BoundPropertyBool Name="Mute" Value="false" />
        <BoundPropertyInt Name="rotateStepNinety" Value="0" />
        <BoundPropertyFloat Name="Volume" Value="1" />
      </BoundProperties>
    </VideoClip>
    <VideoClip extentID="87" gapBefore="0" mediaItemID="83" inTime="0" outTime="0" speed="1" stabilizationMode="0">
      <Effects />
      <Transitions />
      <BoundProperties>
        <BoundPropertyBool Name="Mute" Value="false" />
        <BoundPropertyInt Name="rotateStepNinety" Value="0" />
        <BoundPropertyFloat Name="Volume" Value="1" />
      </BoundProperties>
    </VideoClip>
    <ImageClip extentID="88" gapBefore="0" mediaItemID="84" duration="1.5">
      <Effects />
      <Transitions>
        <ShaderEffect effectTemplateID="FilledVLeftTransitionTemplate" duration="1.5">
          <BoundProperties />
        </ShaderEffect>
      </Transitions>
      <BoundProperties>
        <BoundPropertyInt Name="rotateStepNinety" Value="0" />
      </BoundProperties>
    </ImageClip>
    <ImageClip extentID="89" gapBefore="0" mediaItemID="85" duration="7">
      <Effects />
      <Transitions>
        <ShaderEffect effectTemplateID="FilledVDownTransitionTemplate" duration="1.5">
          <BoundProperties />
        </ShaderEffect>
      </Transitions>
      <BoundProperties>
        <BoundPropertyInt Name="rotateStepNinety" Value="0" />
      </BoundProperties>
    </ImageClip>
    <ImageClip extentID="90" gapBefore="0" mediaItemID="86" duration="5">
      <Effects />
      <Transitions>
        <ShaderEffect effectTemplateID="CircleTransitionTemplate" duration="1.5">
          <BoundProperties />
        </ShaderEffect>
      </Transitions>
      <BoundProperties>
        <BoundPropertyInt Name="rotateStepNinety" Value="0" />
      </BoundProperties>
    </ImageClip>
    <ImageClip extentID="91" gapBefore="0" mediaItemID="87" duration="1.5">
      <Effects />
      <Transitions>
        <ShaderEffect effectTemplateID="FilledVLeftTransitionTemplate" duration="1.5">
          <BoundProperties />
        </ShaderEffect>
      </Transitions>
      <BoundProperties>
        <BoundPropertyInt Name="rotateStepNinety" Value="0" />
      </BoundProperties>
    </ImageClip>
    <ImageClip extentID="92" gapBefore="0" mediaItemID="88" duration="7">
      <Effects />
      <Transitions>
        <ShaderEffect effectTemplateID="FilledVDownTransitionTemplate" duration="1.5">
          <BoundProperties />
        </ShaderEffect>
      </Transitions>
      <BoundProperties>
        <BoundPropertyInt Name="rotateStepNinety" Value="0" />
      </BoundProperties>
    </ImageClip>
    <ImageClip extentID="93" gapBefore="0" mediaItemID="89" duration="5">
      <Effects />
      <Transitions>
        <ShaderEffect effectTemplateID="CircleTransitionTemplate" duration="1.5">
          <BoundProperties />
        </ShaderEffect>
      </Transitions>
      <BoundProperties>
        <BoundPropertyInt Name="rotateStepNinety" Value="0" />
      </BoundProperties>
    </ImageClip>
    <VideoClip extentID="94" gapBefore="0" mediaItemID="90" inTime="0" outTime="0" speed="1" stabilizationMode="0">
      <Effects />
      <Transitions />
      <BoundProperties>
        <BoundPropertyBool Name="Mute" Value="false" />
        <BoundPropertyInt Name="rotateStepNinety" Value="0" />
        <BoundPropertyFloat Name="Volume" Value="1" />
      </BoundProperties>
    </VideoClip>
    <ImageClip extentID="95" gapBefore="0" mediaItemID="91" duration="1.5">
      <Effects />
      <Transitions>
        <ShaderEffect effectTemplateID="FilledVLeftTransitionTemplate" duration="1.5">
          <BoundProperties />
        </ShaderEffect>
      </Transitions>
      <BoundProperties>
        <BoundPropertyInt Name="rotateStepNinety" Value="0" />
      </BoundProperties>
    </ImageClip>
    <ImageClip extentID="96" gapBefore="0" mediaItemID="92" duration="7">
      <Effects />
      <Transitions>
        <ShaderEffect effectTemplateID="FilledVDownTransitionTemplate" duration="1.5">
          <BoundProperties />
        </ShaderEffect>
      </Transitions>
      <BoundProperties>
        <BoundPropertyInt Name="rotateStepNinety" Value="0" />
      </BoundProperties>
    </ImageClip>
    <ImageClip extentID="97" gapBefore="0" mediaItemID="93" duration="5">
      <Effects />
      <Transitions>
        <ShaderEffect effectTemplateID="CircleTransitionTemplate" duration="1.5">
          <BoundProperties />
        </ShaderEffect>
      </Transitions>
      <BoundProperties>
        <BoundPropertyInt Name="rotateStepNinety" Value="0" />
      </BoundProperties>
    </ImageClip>
    <VideoClip extentID="98" gapBefore="0" mediaItemID="94" inTime="0" outTime="0" speed="1" stabilizationMode="0">
      <Effects />
      <Transitions />
      <BoundProperties>
        <BoundPropertyBool Name="Mute" Value="false" />
        <BoundPropertyInt Name="rotateStepNinety" Value="0" />
        <BoundPropertyFloat Name="Volume" Value="1" />
      </BoundProperties>
    </VideoClip>
    <VideoClip extentID="99" gapBefore="0" mediaItemID="95" inTime="0" outTime="0" speed="1" stabilizationMode="0">
      <Effects />
      <Transitions />
      <BoundProperties>
        <BoundPropertyBool Name="Mute" Value="false" />
        <BoundPropertyInt Name="rotateStepNinety" Value="0" />
        <BoundPropertyFloat Name="Volume" Value="1" />
      </BoundProperties>
    </VideoClip>
    <ImageClip extentID="100" gapBefore="0" mediaItemID="96" duration="1.5">
      <Effects />
      <Transitions>
        <ShaderEffect effectTemplateID="FilledVLeftTransitionTemplate" duration="1.5">
          <BoundProperties />
        </ShaderEffect>
      </Transitions>
      <BoundProperties>
        <BoundPropertyInt Name="rotateStepNinety" Value="0" />
      </BoundProperties>
    </ImageClip>
    <ImageClip extentID="101" gapBefore="0" mediaItemID="97" duration="7">
      <Effects />
      <Transitions>
        <ShaderEffect effectTemplateID="FilledVDownTransitionTemplate" duration="1.5">
          <BoundProperties />
        </ShaderEffect>
      </Transitions>
      <BoundProperties>
        <BoundPropertyInt Name="rotateStepNinety" Value="0" />
      </BoundProperties>
    </ImageClip>
    <ImageClip extentID="102" gapBefore="0" mediaItemID="98" duration="5">
      <Effects />
      <Transitions>
        <ShaderEffect effectTemplateID="CircleTransitionTemplate" duration="1.5">
          <BoundProperties />
        </ShaderEffect>
      </Transitions>
      <BoundProperties>
        <BoundPropertyInt Name="rotateStepNinety" Value="0" />
      </BoundProperties>
    </ImageClip>
    <VideoClip extentID="105" gapBefore="0" mediaItemID="99" inTime="0" outTime="0" speed="1" stabilizationMode="0">
      <Effects />
      <Transitions />
      <BoundProperties>
        <BoundPropertyBool Name="Mute" Value="false" />
        <BoundPropertyInt Name="rotateStepNinety" Value="0" />
        <BoundPropertyFloat Name="Volume" Value="1" />
      </BoundProperties>
    </VideoClip>
    <ImageClip extentID="106" gapBefore="0" mediaItemID="100" duration="1.5">
      <Effects />
      <Transitions>
        <ShaderEffect effectTemplateID="FilledVLeftTransitionTemplate" duration="1.5">
          <BoundProperties />
        </ShaderEffect>
      </Transitions>
      <BoundProperties>
        <BoundPropertyInt Name="rotateStepNinety" Value="0" />
      </BoundProperties>
    </ImageClip>
    <ImageClip extentID="107" gapBefore="0" mediaItemID="101" duration="7">
      <Effects />
      <Transitions>
        <ShaderEffect effectTemplateID="FilledVDownTransitionTemplate" duration="1.5">
          <BoundProperties />
        </ShaderEffect>
      </Transitions>
      <BoundProperties>
        <BoundPropertyInt Name="rotateStepNinety" Value="0" />
      </BoundProperties>
    </ImageClip>
    <ImageClip extentID="108" gapBefore="0" mediaItemID="102" duration="5">
      <Effects />
      <Transitions>
        <ShaderEffect effectTemplateID="CircleTransitionTemplate" duration="1.5">
          <BoundProperties />
        </ShaderEffect>
      </Transitions>
      <BoundProperties>
        <BoundPropertyInt Name="rotateStepNinety" Value="0" />
      </BoundProperties>
    </ImageClip>
    <ImageClip extentID="111" gapBefore="0" mediaItemID="103" duration="1.5">
      <Effects />
      <Transitions>
        <ShaderEffect effectTemplateID="FilledVLeftTransitionTemplate" duration="1.5">
          <BoundProperties />
        </ShaderEffect>
      </Transitions>
      <BoundProperties>
        <BoundPropertyInt Name="rotateStepNinety" Value="0" />
      </BoundProperties>
    </ImageClip>
    <ImageClip extentID="112" gapBefore="0" mediaItemID="104" duration="7">
      <Effects />
      <Transitions>
        <ShaderEffect effectTemplateID="FilledVDownTransitionTemplate" duration="1.5">
          <BoundProperties />
        </ShaderEffect>
      </Transitions>
      <BoundProperties>
        <BoundPropertyInt Name="rotateStepNinety" Value="0" />
      </BoundProperties>
    </ImageClip>
    <ImageClip extentID="113" gapBefore="0" mediaItemID="105" duration="5">
      <Effects />
      <Transitions>
        <ShaderEffect effectTemplateID="CircleTransitionTemplate" duration="1.5">
          <BoundProperties />
        </ShaderEffect>
      </Transitions>
      <BoundProperties>
        <BoundPropertyInt Name="rotateStepNinety" Value="0" />
      </BoundProperties>
    </ImageClip>
    <VideoClip extentID="114" gapBefore="0" mediaItemID="106" inTime="0" outTime="0" speed="1" stabilizationMode="0">
      <Effects />
      <Transitions />
      <BoundProperties>
        <BoundPropertyBool Name="Mute" Value="false" />
        <BoundPropertyInt Name="rotateStepNinety" Value="0" />
        <BoundPropertyFloat Name="Volume" Value="1" />
      </BoundProperties>
    </VideoClip>
    <ImageClip extentID="115" gapBefore="0" mediaItemID="107" duration="1.5">
      <Effects />
      <Transitions>
        <ShaderEffect effectTemplateID="FilledVLeftTransitionTemplate" duration="1.5">
          <BoundProperties />
        </ShaderEffect>
      </Transitions>
      <BoundProperties>
        <BoundPropertyInt Name="rotateStepNinety" Value="0" />
      </BoundProperties>
    </ImageClip>
    <ImageClip extentID="116" gapBefore="0" mediaItemID="108" duration="7">
      <Effects />
      <Transitions>
        <ShaderEffect effectTemplateID="FilledVDownTransitionTemplate" duration="1.5">
          <BoundProperties />
        </ShaderEffect>
      </Transitions>
      <BoundProperties>
        <BoundPropertyInt Name="rotateStepNinety" Value="0" />
      </BoundProperties>
    </ImageClip>
    <ImageClip extentID="117" gapBefore="0" mediaItemID="109" duration="5">
      <Effects />
      <Transitions>
        <ShaderEffect effectTemplateID="CircleTransitionTemplate" duration="1.5">
          <BoundProperties />
        </ShaderEffect>
      </Transitions>
      <BoundProperties>
        <BoundPropertyInt Name="rotateStepNinety" Value="0" />
      </BoundProperties>
    </ImageClip>
    <VideoClip extentID="118" gapBefore="0" mediaItemID="110" inTime="0" outTime="0" speed="1" stabilizationMode="0">
      <Effects />
      <Transitions />
      <BoundProperties>
        <BoundPropertyBool Name="Mute" Value="false" />
        <BoundPropertyInt Name="rotateStepNinety" Value="0" />
        <BoundPropertyFloat Name="Volume" Value="1" />
      </BoundProperties>
    </VideoClip>
    <VideoClip extentID="119" gapBefore="0" mediaItemID="111" inTime="0" outTime="0" speed="1" stabilizationMode="0">
      <Effects />
      <Transitions />
      <BoundProperties>
        <BoundPropertyBool Name="Mute" Value="false" />
        <BoundPropertyInt Name="rotateStepNinety" Value="0" />
        <BoundPropertyFloat Name="Volume" Value="1" />
      </BoundProperties>
    </VideoClip>
    <ImageClip extentID="120" gapBefore="0" mediaItemID="112" duration="1.5">
      <Effects />
      <Transitions>
        <ShaderEffect effectTemplateID="FilledVLeftTransitionTemplate" duration="1.5">
          <BoundProperties />
        </ShaderEffect>
      </Transitions>
      <BoundProperties>
        <BoundPropertyInt Name="rotateStepNinety" Value="0" />
      </BoundProperties>
    </ImageClip>
    <ImageClip extentID="121" gapBefore="0" mediaItemID="113" duration="7">
      <Effects />
      <Transitions>
        <ShaderEffect effectTemplateID="FilledVDownTransitionTemplate" duration="1.5">
          <BoundProperties />
        </ShaderEffect>
      </Transitions>
      <BoundProperties>
        <BoundPropertyInt Name="rotateStepNinety" Value="0" />
      </BoundProperties>
    </ImageClip>
    <ImageClip extentID="122" gapBefore="0" mediaItemID="114" duration="5">
      <Effects />
      <Transitions>
        <ShaderEffect effectTemplateID="CircleTransitionTemplate" duration="1.5">
          <BoundProperties />
        </ShaderEffect>
      </Transitions>
      <BoundProperties>
        <BoundPropertyInt Name="rotateStepNinety" Value="0" />
      </BoundProperties>
    </ImageClip>
    <ImageClip extentID="123" gapBefore="0" mediaItemID="115" duration="1.5">
      <Effects />
      <Transitions>
        <ShaderEffect effectTemplateID="FilledVLeftTransitionTemplate" duration="1.5">
          <BoundProperties />
        </ShaderEffect>
      </Transitions>
      <BoundProperties>
        <BoundPropertyInt Name="rotateStepNinety" Value="0" />
      </BoundProperties>
    </ImageClip>
    <ImageClip extentID="124" gapBefore="0" mediaItemID="116" duration="7">
      <Effects />
      <Transitions>
        <ShaderEffect effectTemplateID="FilledVDownTransitionTemplate" duration="1.5">
          <BoundProperties />
        </ShaderEffect>
      </Transitions>
      <BoundProperties>
        <BoundPropertyInt Name="rotateStepNinety" Value="0" />
      </BoundProperties>
    </ImageClip>
    <ImageClip extentID="125" gapBefore="0" mediaItemID="117" duration="5">
      <Effects />
      <Transitions>
        <ShaderEffect effectTemplateID="CircleTransitionTemplate" duration="1.5">
          <BoundProperties />
        </ShaderEffect>
      </Transitions>
      <BoundProperties>
        <BoundPropertyInt Name="rotateStepNinety" Value="0" />
      </BoundProperties>
    </ImageClip>
    <VideoClip extentID="126" gapBefore="0" mediaItemID="118" inTime="0" outTime="0" speed="1" stabilizationMode="0">
      <Effects />
      <Transitions />
      <BoundProperties>
        <BoundPropertyBool Name="Mute" Value="false" />
        <BoundPropertyInt Name="rotateStepNinety" Value="0" />
        <BoundPropertyFloat Name="Volume" Value="1" />
      </BoundProperties>
    </VideoClip>
    <VideoClip extentID="127" gapBefore="0" mediaItemID="119" inTime="0" outTime="0" speed="1" stabilizationMode="0">
      <Effects />
      <Transitions />
      <BoundProperties>
        <BoundPropertyBool Name="Mute" Value="false" />
        <BoundPropertyInt Name="rotateStepNinety" Value="0" />
        <BoundPropertyFloat Name="Volume" Value="1" />
      </BoundProperties>
    </VideoClip>
    <ImageClip extentID="128" gapBefore="0" mediaItemID="120" duration="1.5">
      <Effects />
      <Transitions>
        <ShaderEffect effectTemplateID="FilledVLeftTransitionTemplate" duration="1.5">
          <BoundProperties />
        </ShaderEffect>
      </Transitions>
      <BoundProperties>
        <BoundPropertyInt Name="rotateStepNinety" Value="0" />
      </BoundProperties>
    </ImageClip>
    <ImageClip extentID="129" gapBefore="0" mediaItemID="121" duration="7">
      <Effects />
      <Transitions>
        <ShaderEffect effectTemplateID="FilledVLeftTransitionTemplate" duration="1.5">
          <BoundProperties />
        </ShaderEffect>
      </Transitions>
      <BoundProperties>
        <BoundPropertyInt Name="rotateStepNinety" Value="0" />
      </BoundProperties>
    </ImageClip>
    <ImageClip extentID="130" gapBefore="0" mediaItemID="122" duration="5">
      <Effects />
      <Transitions>
        <ShaderEffect effectTemplateID="CircleTransitionTemplate" duration="1.5">
          <BoundProperties />
        </ShaderEffect>
      </Transitions>
      <BoundProperties>
        <BoundPropertyInt Name="rotateStepNinety" Value="0" />
      </BoundProperties>
    </ImageClip>
    <ImageClip extentID="131" gapBefore="0" mediaItemID="123" duration="44">
      <Effects />
      <Transitions>
        <ShapeEffect effectTemplateID="BlurThroughBlackTransitionTemplate" duration="10">
          <BoundProperties />
        </ShapeEffect>
      </Transitions>
      <BoundProperties>
        <BoundPropertyInt Name="rotateStepNinety" Value="0" />
      </BoundProperties>
    </ImageClip>
    <ExtentSelector extentID="1" gapBefore="0" primaryTrack="true">
      <Effects />
      <Transitions />
      <BoundProperties />
      <ExtentRefs>
        <ExtentRef id="9" />
        <ExtentRef id="10" />
        <ExtentRef id="8" />
        <ExtentRef id="7" />
        <ExtentRef id="6" />
        <ExtentRef id="5" />
        <ExtentRef id="13" />
        <ExtentRef id="12" />
        <ExtentRef id="11" />
        <ExtentRef id="14" />
        <ExtentRef id="17" />
        <ExtentRef id="16" />
        <ExtentRef id="15" />
        <ExtentRef id="18" />
        <ExtentRef id="21" />
        <ExtentRef id="20" />
        <ExtentRef id="19" />
        <ExtentRef id="22" />
        <ExtentRef id="23" />
        <ExtentRef id="25" />
        <ExtentRef id="24" />
        <ExtentRef id="26" />
        <ExtentRef id="29" />
        <ExtentRef id="28" />
        <ExtentRef id="27" />
        <ExtentRef id="30" />
        <ExtentRef id="34" />
        <ExtentRef id="33" />
        <ExtentRef id="32" />
        <ExtentRef id="31" />
        <ExtentRef id="37" />
        <ExtentRef id="36" />
        <ExtentRef id="35" />
        <ExtentRef id="38" />
        <ExtentRef id="41" />
        <ExtentRef id="40" />
        <ExtentRef id="39" />
        <ExtentRef id="42" />
        <ExtentRef id="45" />
        <ExtentRef id="44" />
        <ExtentRef id="43" />
        <ExtentRef id="46" />
        <ExtentRef id="49" />
        <ExtentRef id="48" />
        <ExtentRef id="47" />
        <ExtentRef id="50" />
        <ExtentRef id="53" />
        <ExtentRef id="52" />
        <ExtentRef id="51" />
        <ExtentRef id="54" />
        <ExtentRef id="58" />
        <ExtentRef id="57" />
        <ExtentRef id="56" />
        <ExtentRef id="55" />
        <ExtentRef id="61" />
        <ExtentRef id="60" />
        <ExtentRef id="59" />
        <ExtentRef id="62" />
        <ExtentRef id="66" />
        <ExtentRef id="65" />
        <ExtentRef id="64" />
        <ExtentRef id="63" />
        <ExtentRef id="70" />
        <ExtentRef id="69" />
        <ExtentRef id="68" />
        <ExtentRef id="67" />
        <ExtentRef id="73" />
        <ExtentRef id="72" />
        <ExtentRef id="71" />
        <ExtentRef id="74" />
        <ExtentRef id="78" />
        <ExtentRef id="77" />
        <ExtentRef id="76" />
        <ExtentRef id="75" />
        <ExtentRef id="81" />
        <ExtentRef id="80" />
        <ExtentRef id="79" />
        <ExtentRef id="82" />
        <ExtentRef id="85" />
        <ExtentRef id="84" />
        <ExtentRef id="83" />
        <ExtentRef id="86" />
        <ExtentRef id="90" />
        <ExtentRef id="89" />
        <ExtentRef id="88" />
        <ExtentRef id="87" />
        <ExtentRef id="93" />
        <ExtentRef id="92" />
        <ExtentRef id="91" />
        <ExtentRef id="94" />
        <ExtentRef id="97" />
        <ExtentRef id="96" />
        <ExtentRef id="95" />
        <ExtentRef id="98" />
        <ExtentRef id="102" />
        <ExtentRef id="101" />
        <ExtentRef id="100" />
        <ExtentRef id="99" />
        <ExtentRef id="108" />
        <ExtentRef id="107" />
        <ExtentRef id="106" />
        <ExtentRef id="105" />
        <ExtentRef id="113" />
        <ExtentRef id="112" />
        <ExtentRef id="111" />
        <ExtentRef id="114" />
        <ExtentRef id="117" />
        <ExtentRef id="116" />
        <ExtentRef id="115" />
        <ExtentRef id="118" />
        <ExtentRef id="122" />
        <ExtentRef id="121" />
        <ExtentRef id="120" />
        <ExtentRef id="119" />
        <ExtentRef id="125" />
        <ExtentRef id="124" />
        <ExtentRef id="123" />
        <ExtentRef id="126" />
        <ExtentRef id="130" />
        <ExtentRef id="129" />
        <ExtentRef id="128" />
        <ExtentRef id="127" />
        <ExtentRef id="131" />
      </ExtentRefs>
    </ExtentSelector>
    <ExtentSelector extentID="2" gapBefore="0" primaryTrack="false">
      <Effects />
      <Transitions />
      <BoundProperties />
      <ExtentRefs />
    </ExtentSelector>
    <ExtentSelector extentID="3" gapBefore="0" primaryTrack="false">
      <Effects />
      <Transitions />
      <BoundProperties />
      <ExtentRefs />
    </ExtentSelector>
    <ExtentSelector extentID="4" gapBefore="0" primaryTrack="false">
      <Effects />
      <Transitions />
      <BoundProperties />
      <ExtentRefs />
    </ExtentSelector>
  </Extents>
  <BoundPlaceholders>
    <BoundPlaceholder placeholderID="SingleExtentView" extentID="0" />
    <BoundPlaceholder placeholderID="Main" extentID="1" />
    <BoundPlaceholder placeholderID="SoundTrack" extentID="2" />
    <BoundPlaceholder placeholderID="Text" extentID="4" />
    <BoundPlaceholder placeholderID="Narration" extentID="3" />
  </BoundPlaceholders>
  <BoundProperties>
    <BoundPropertyFloatSet Name="AspectRatio">
      <BoundPropertyFloatElement Value="1.7777776718139648" />
    </BoundPropertyFloatSet>
    <BoundPropertyFloat Name="DuckedNarrationAndSoundTrackMix" Value="0.5" />
    <BoundPropertyFloat Name="DuckedVideoAndNarrationMix" Value="0" />
    <BoundPropertyFloat Name="DuckedVideoAndSoundTrackMix" Value="0" />
    <BoundPropertyFloat Name="SoundTrackMix" Value="0" />
  </BoundProperties>
  <ThemeOperationLog themeID="0">
    <MonolithicThemeOperations />
  </ThemeOperationLog>
  <AudioDuckingProperties emphasisPlaceholderID="Narration" />
</Project>